<?xml version='1.0' encoding='UTF-8' standalone='no'?>
<svg baseProfile="tiny" height="210mm" version="1.2" viewBox="0 0 2970 2100" width="297mm" xmlns="http://www.w3.org/2000/svg" xmlns:cc="http://creativecommons.org/ns#" xmlns:dc="http://purl.org/dc/elements/1.1/" xmlns:freecad="https://www.freecad.org/wiki/index.php?title=Svg_Namespace" xmlns:inkscape="http://www.inkscape.org/namespaces/inkscape" xmlns:rdf="http://www.w3.org/1999/02/22-rdf-syntax-ns#" xmlns:sodipodi="http://sodipodi.sourceforge.net/DTD/sodipodi-0.dtd" xmlns:svg="http://www.w3.org/2000/svg" xmlns:xlink="http://www.w3.org/1999/xlink">
 <title>FreeCAD SVG Export</title>
 <desc>Drawing page: Page001 exported from FreeCAD document: Unnamed</desc>
 <defs/>
 <g id="Page001" inkscape:groupmode="layer" inkscape:label="TechDraw">
  <g id="A3_Land_PeF_DWD_DR1.svg" style="stroke: none;" transform="scale(10.000000, 10.000000)">
   <metadata id="metadata8">
    <rdf:RDF>
     <cc:Work rdf:about="">
      <dc:format>image/svg+xml</dc:format>
      <dc:type rdf:resource="http://purl.org/dc/dcmitype/StillImage"/>
     </cc:Work>
    </rdf:RDF>
   </metadata>
  </g>
  <g fill="none" fill-rule="evenodd" id="DrawingContent" stroke="black" stroke-linecap="square" stroke-linejoin="bevel" stroke-width="1">
   <g fill="#f1f3f5" fill-opacity="0" font-family="Sans Serif" font-size="31.75" font-style="normal" font-weight="400" stroke="none" transform="matrix(1,0,0,1,796.784,1017.55)">
    <path d="M-50,25 L-50,-25 L50,-50 L50,50 L-50,25" fill-rule="evenodd" vector-effect="non-scaling-stroke"/>
   </g>
   <g fill="none" font-family="Sans Serif" font-size="31.75" font-style="normal" font-weight="400" stroke="#212529" stroke-linecap="round" stroke-linejoin="bevel" stroke-opacity="1" stroke-width="5" transform="matrix(1,0,0,1,796.784,1017.55)">
    <path d="M-50,25 L-50,-25" fill-rule="evenodd" vector-effect="none"/>
   </g>
   <g fill="none" font-family="Sans Serif" font-size="31.75" font-style="normal" font-weight="400" stroke="#212529" stroke-linecap="round" stroke-linejoin="bevel" stroke-opacity="1" stroke-width="5" transform="matrix(1,0,0,1,796.784,1017.55)">
    <path d="M50,-50 L-50,-25" fill-rule="evenodd" vector-effect="none"/>
   </g>
   <g fill="none" font-family="Sans Serif" font-size="31.75" font-style="normal" font-weight="400" stroke="#212529" stroke-linecap="round" stroke-linejoin="bevel" stroke-opacity="1" stroke-width="5" transform="matrix(1,0,0,1,796.784,1017.55)">
    <path d="M50,50 L50,-50" fill-rule="evenodd" vector-effect="none"/>
   </g>
   <g fill="none" font-family="Sans Serif" font-size="31.75" font-style="normal" font-weight="400" stroke="#212529" stroke-linecap="round" stroke-linejoin="bevel" stroke-opacity="1" stroke-width="5" transform="matrix(1,0,0,1,796.784,1017.55)">
    <path d="M-50,25 L50,50" fill-rule="evenodd" vector-effect="none"/>
   </g>
   <g fill="none" font-family="Sans Serif" font-size="31.75" font-style="normal" font-weight="400" stroke="#212529" stroke-dasharray="30,7.5" stroke-dashoffset="7.5" stroke-linecap="round" stroke-linejoin="bevel" stroke-opacity="1" stroke-width="2.5" transform="matrix(1,0,0,1,796.784,1017.55)">
    <path d="M-50,-25 L-50,25" fill-rule="evenodd" vector-effect="none"/>
   </g>
   <g fill="none" font-family="Sans Serif" font-size="31.75" font-style="normal" font-weight="400" stroke="#212529" stroke-dasharray="30,7.5" stroke-dashoffset="7.5" stroke-linecap="round" stroke-linejoin="bevel" stroke-opacity="1" stroke-width="2.5" transform="matrix(1,0,0,1,796.784,1017.55)">
    <path d="M50,-50 L50,50" fill-rule="evenodd" vector-effect="none"/>
   </g>
   <g fill="none" font-family="Sans Serif" font-size="31.75" font-style="normal" font-weight="400" stroke="#212529" stroke-dasharray="42,10.5,3.5,10.5" stroke-dashoffset="0" stroke-linecap="round" stroke-linejoin="bevel" stroke-opacity="1" stroke-width="3.5" transform="matrix(1,0,0,1,796.784,1017.55)">
    <path d="M-80,-3.10862e-14 L80,-3.10862e-14" fill-rule="evenodd" vector-effect="none"/>
   </g>
   <g fill="#f1f3f5" fill-opacity="0" font-family="Sans Serif" font-size="31.75" font-style="normal" font-weight="400" stroke="none" transform="matrix(1,0,0,1,976.784,1017.55)">
    <path d="M50,0 C50,27.6142 27.6142,50 0,50 C-27.6142,50 -50,27.6142 -50,0 C-50,-27.6142 -27.6142,-50 0,-50 C27.6142,-50 50,-27.6142 50,0 " fill-rule="evenodd" vector-effect="non-scaling-stroke"/>
   </g>
   <g fill="#f1f3f5" fill-opacity="0" font-family="Sans Serif" font-size="31.75" font-style="normal" font-weight="400" stroke="none" transform="matrix(1,0,0,1,976.784,1017.55)">
    <path d="M25,-3.55271e-15 C25,13.8071 13.8071,25 -7.10543e-15,25 C-13.8071,25 -25,13.8071 -25,-3.55271e-15 C-25,-13.8071 -13.8071,-25 -7.10543e-15,-25 C13.8071,-25 25,-13.8071 25,-3.55271e-15 " fill-rule="evenodd" vector-effect="non-scaling-stroke"/>
   </g>
   <g fill="none" font-family="Sans Serif" font-size="31.75" font-style="normal" font-weight="400" stroke="#212529" stroke-linecap="round" stroke-linejoin="bevel" stroke-opacity="1" stroke-width="5" transform="matrix(1,0,0,1,976.784,1017.55)">
    <path d="M25,-3.55271e-15 C25,13.8071 13.8071,25 -7.10543e-15,25 C-13.8071,25 -25,13.8071 -25,-3.55271e-15 C-25,-13.8071 -13.8071,-25 -7.10543e-15,-25 C13.8071,-25 25,-13.8071 25,-3.55271e-15 " fill-rule="evenodd" vector-effect="none"/>
   </g>
   <g fill="none" font-family="Sans Serif" font-size="31.75" font-style="normal" font-weight="400" stroke="#212529" stroke-linecap="round" stroke-linejoin="bevel" stroke-opacity="1" stroke-width="5" transform="matrix(1,0,0,1,976.784,1017.55)">
    <path d="M50,0 C50,27.6142 27.6142,50 0,50 C-27.6142,50 -50,27.6142 -50,0 C-50,-27.6142 -27.6142,-50 0,-50 C27.6142,-50 50,-27.6142 50,0 " fill-rule="evenodd" vector-effect="none"/>
   </g>
   <g fill="none" font-family="Sans Serif" font-size="31.75" font-style="normal" font-weight="400" stroke="#212529" stroke-dasharray="42,10.5,3.5,10.5" stroke-dashoffset="0" stroke-linecap="round" stroke-linejoin="bevel" stroke-opacity="1" stroke-width="3.5" transform="matrix(1,0,0,1,976.784,1017.55)">
    <path d="M0,-80 L0,80" fill-rule="evenodd" vector-effect="none"/>
   </g>
   <g fill="none" font-family="Sans Serif" font-size="31.75" font-style="normal" font-weight="400" stroke="#212529" stroke-dasharray="42,10.5,3.5,10.5" stroke-dashoffset="0" stroke-linecap="round" stroke-linejoin="bevel" stroke-opacity="1" stroke-width="3.5" transform="matrix(1,0,0,1,976.784,1017.55)">
    <path d="M-80,0 L80,0" fill-rule="evenodd" vector-effect="none"/>
   </g>
  </g>
 </g>
</svg>
