<?xml version='1.0' encoding='UTF-8' standalone='no'?>
<svg baseProfile="tiny" height="210mm" version="1.2" viewBox="0 0 2970 2100" width="297mm" xmlns="http://www.w3.org/2000/svg" xmlns:cc="http://creativecommons.org/ns#" xmlns:dc="http://purl.org/dc/elements/1.1/" xmlns:freecad="https://www.freecad.org/wiki/index.php?title=Svg_Namespace" xmlns:inkscape="http://www.inkscape.org/namespaces/inkscape" xmlns:rdf="http://www.w3.org/1999/02/22-rdf-syntax-ns#" xmlns:sodipodi="http://sodipodi.sourceforge.net/DTD/sodipodi-0.dtd" xmlns:svg="http://www.w3.org/2000/svg" xmlns:xlink="http://www.w3.org/1999/xlink">
 <title>FreeCAD SVG Export</title>
 <desc>Drawing page: Page001 exported from FreeCAD document: Unnamed</desc>
 <defs/>
 <g id="Page001" inkscape:groupmode="layer" inkscape:label="TechDraw">
  <g id="A3_Land_PeF_DWD_DR1.svg" style="stroke: none;" transform="scale(10.000000, 10.000000)">
   <metadata id="metadata8">
    <rdf:RDF>
     <cc:Work rdf:about="">
      <dc:format>image/svg+xml</dc:format>
      <dc:type rdf:resource="http://purl.org/dc/dcmitype/StillImage"/>
     </cc:Work>
    </rdf:RDF>
   </metadata>
  </g>
  <g fill="none" fill-rule="evenodd" id="DrawingContent" stroke="black" stroke-linecap="square" stroke-linejoin="bevel" stroke-width="1">
   <g fill="#f1f3f5" fill-opacity="0" font-family="Sans Serif" font-size="31.75" font-style="normal" font-weight="400" stroke="none" transform="matrix(1,0,0,1,1491.23,1036.93)">
    <path d="M-50,25 L-50,-25 L50,-50 L50,50 L-50,25" fill-rule="evenodd" vector-effect="non-scaling-stroke"/>
   </g>
   <g fill="none" font-family="Sans Serif" font-size="31.75" font-style="normal" font-weight="400" stroke="#212529" stroke-linecap="round" stroke-linejoin="bevel" stroke-opacity="1" stroke-width="5" transform="matrix(1,0,0,1,1491.23,1036.93)">
    <path d="M-50,25 L-50,-25" fill-rule="evenodd" vector-effect="none"/>
   </g>
   <g fill="none" font-family="Sans Serif" font-size="31.75" font-style="normal" font-weight="400" stroke="#212529" stroke-linecap="round" stroke-linejoin="bevel" stroke-opacity="1" stroke-width="5" transform="matrix(1,0,0,1,1491.23,1036.93)">
    <path d="M50,-50 L-50,-25" fill-rule="evenodd" vector-effect="none"/>
   </g>
   <g fill="none" font-family="Sans Serif" font-size="31.75" font-style="normal" font-weight="400" stroke="#212529" stroke-linecap="round" stroke-linejoin="bevel" stroke-opacity="1" stroke-width="5" transform="matrix(1,0,0,1,1491.23,1036.93)">
    <path d="M50,50 L50,-50" fill-rule="evenodd" vector-effect="none"/>
   </g>
   <g fill="none" font-family="Sans Serif" font-size="31.75" font-style="normal" font-weight="400" stroke="#212529" stroke-linecap="round" stroke-linejoin="bevel" stroke-opacity="1" stroke-width="5" transform="matrix(1,0,0,1,1491.23,1036.93)">
    <path d="M-50,25 L50,50" fill-rule="evenodd" vector-effect="none"/>
   </g>
   <g fill="none" font-family="Sans Serif" font-size="31.75" font-style="normal" font-weight="400" stroke="#212529" stroke-dasharray="30,7.5" stroke-dashoffset="7.5" stroke-linecap="round" stroke-linejoin="bevel" stroke-opacity="1" stroke-width="2.5" transform="matrix(1,0,0,1,1491.23,1036.93)">
    <path d="M-50,-25 L-50,25" fill-rule="evenodd" vector-effect="none"/>
   </g>
   <g fill="none" font-family="Sans Serif" font-size="31.75" font-style="normal" font-weight="400" stroke="#212529" stroke-dasharray="30,7.5" stroke-dashoffset="7.5" stroke-linecap="round" stroke-linejoin="bevel" stroke-opacity="1" stroke-width="2.5" transform="matrix(1,0,0,1,1491.23,1036.93)">
    <path d="M50,-50 L50,50" fill-rule="evenodd" vector-effect="none"/>
   </g>
   <g fill="none" font-family="Sans Serif" font-size="31.75" font-style="normal" font-weight="400" stroke="#212529" stroke-dasharray="42,10.5,3.5,10.5" stroke-dashoffset="0" stroke-linecap="round" stroke-linejoin="bevel" stroke-opacity="1" stroke-width="3.5" transform="matrix(1,0,0,1,1491.23,1036.93)">
    <path d="M-80,-3.10862e-14 L80,-3.10862e-14" fill-rule="evenodd" vector-effect="none"/>
   </g>
   <g fill="none" font-family="Sans Serif" font-size="31.75" font-style="normal" font-weight="400" stroke="#212529" stroke-linecap="square" stroke-linejoin="bevel" stroke-opacity="1" stroke-width="1" transform="matrix(1,0,0,1,1466.73,866.42)">
    <text fill="#212529" fill-opacity="1" font-family="ISOCPEUR" font-size="53" font-style="normal" font-weight="400" stroke="none" x="4" xml:space="preserve" y="55.2344">10</text>
   </g>
   <g fill="none" font-family="Sans Serif" font-size="31.75" font-style="normal" font-weight="400" stroke="#212529" stroke-linecap="round" stroke-linejoin="bevel" stroke-opacity="1" stroke-width="2.5" transform="matrix(1,0,0,1,1491.23,1036.93)">
    <path d="M-50,-97.2624 L50,-97.2624 M50,-50 L50,-117.262 M-50,-25 L-50,-117.262" fill-rule="evenodd" vector-effect="none"/>
   </g>
   <g fill="#212529" fill-opacity="1" font-family="Sans Serif" font-size="31.75" font-style="normal" font-weight="400" stroke="#212529" stroke-linecap="round" stroke-linejoin="bevel" stroke-opacity="1" stroke-width="2.5" transform="matrix(1,0,0,1,1541.23,939.67)">
    <path d="M0,0 L-35,-5.83333 L-35,5.83333 L0,0" fill-rule="evenodd" vector-effect="none"/>
   </g>
   <g fill="#212529" fill-opacity="1" font-family="Sans Serif" font-size="31.75" font-style="normal" font-weight="400" stroke="#212529" stroke-linecap="round" stroke-linejoin="bevel" stroke-opacity="1" stroke-width="2.5" transform="matrix(1,0,0,1,1441.23,939.67)">
    <path d="M0,0 L35,5.83333 L35,-5.83333 L0,0" fill-rule="evenodd" vector-effect="none"/>
   </g>
   <g fill="none" font-family="Sans Serif" font-size="31.75" font-style="normal" font-weight="400" stroke="#212529" stroke-linecap="square" stroke-linejoin="bevel" stroke-opacity="1" stroke-width="1" transform="matrix(0,-1,1,0,1284.69,1068.25)">
    <text fill="#212529" fill-opacity="1" font-family="ISOCPEUR" font-size="53" font-style="normal" font-weight="400" stroke="none" x="4" xml:space="preserve" y="55.2344">⌀5</text>
   </g>
   <g fill="none" font-family="Sans Serif" font-size="31.75" font-style="normal" font-weight="400" stroke="#212529" stroke-linecap="round" stroke-linejoin="bevel" stroke-opacity="1" stroke-width="2.5" transform="matrix(1,0,0,1,1491.23,1036.93)">
    <path d="M-133.036,95 L-133.036,-95 M-50,-25 L-153.036,-25 M-50,25 L-153.036,25" fill-rule="evenodd" vector-effect="none"/>
   </g>
   <g fill="#212529" fill-opacity="1" font-family="Sans Serif" font-size="31.75" font-style="normal" font-weight="400" stroke="#212529" stroke-linecap="round" stroke-linejoin="bevel" stroke-opacity="1" stroke-width="2.5" transform="matrix(1,0,0,1,1358.19,1011.93)">
    <path d="M0,0 L5.83333,-35 L-5.83333,-35 L0,0" fill-rule="evenodd" vector-effect="none"/>
   </g>
   <g fill="#212529" fill-opacity="1" font-family="Sans Serif" font-size="31.75" font-style="normal" font-weight="400" stroke="#212529" stroke-linecap="round" stroke-linejoin="bevel" stroke-opacity="1" stroke-width="2.5" transform="matrix(1,0,0,1,1358.19,1061.93)">
    <path d="M0,0 L-5.83333,35 L5.83333,35 L0,0" fill-rule="evenodd" vector-effect="none"/>
   </g>
   <g fill="none" font-family="Sans Serif" font-size="31.75" font-style="normal" font-weight="400" stroke="#212529" stroke-linecap="square" stroke-linejoin="bevel" stroke-opacity="1" stroke-width="1" transform="matrix(0,-1,1,0,1587.12,1076.79)">
    <text fill="#212529" fill-opacity="1" font-family="ISOCPEUR" font-size="53" font-style="normal" font-weight="400" stroke="none" x="4" xml:space="preserve" y="55.2344">⌀10</text>
   </g>
   <g fill="none" font-family="Sans Serif" font-size="31.75" font-style="normal" font-weight="400" stroke="#212529" stroke-linecap="round" stroke-linejoin="bevel" stroke-opacity="1" stroke-width="2.5" transform="matrix(1,0,0,1,1491.23,1036.93)">
    <path d="M169.39,-50 L169.39,50 M50,50 L189.39,50 M50,-50 L189.39,-50" fill-rule="evenodd" vector-effect="none"/>
   </g>
   <g fill="#212529" fill-opacity="1" font-family="Sans Serif" font-size="31.75" font-style="normal" font-weight="400" stroke="#212529" stroke-linecap="round" stroke-linejoin="bevel" stroke-opacity="1" stroke-width="2.5" transform="matrix(1,0,0,1,1660.62,1086.93)">
    <path d="M0,0 L5.83333,-35 L-5.83333,-35 L0,0" fill-rule="evenodd" vector-effect="none"/>
   </g>
   <g fill="#212529" fill-opacity="1" font-family="Sans Serif" font-size="31.75" font-style="normal" font-weight="400" stroke="#212529" stroke-linecap="round" stroke-linejoin="bevel" stroke-opacity="1" stroke-width="2.5" transform="matrix(1,0,0,1,1660.62,986.932)">
    <path d="M0,0 L-5.83333,35 L5.83333,35 L0,0" fill-rule="evenodd" vector-effect="none"/>
   </g>
  </g>
 </g>
</svg>
