<?xml version='1.0' encoding='UTF-8' standalone='no'?>
<svg baseProfile="tiny" height="210mm" version="1.2" viewBox="0 0 2970 2100" width="297mm" xmlns="http://www.w3.org/2000/svg" xmlns:cc="http://creativecommons.org/ns#" xmlns:dc="http://purl.org/dc/elements/1.1/" xmlns:freecad="https://www.freecad.org/wiki/index.php?title=Svg_Namespace" xmlns:inkscape="http://www.inkscape.org/namespaces/inkscape" xmlns:rdf="http://www.w3.org/1999/02/22-rdf-syntax-ns#" xmlns:sodipodi="http://sodipodi.sourceforge.net/DTD/sodipodi-0.dtd" xmlns:svg="http://www.w3.org/2000/svg" xmlns:xlink="http://www.w3.org/1999/xlink">
 <title>FreeCAD SVG Export</title>
 <desc>Drawing page: Page002 exported from FreeCAD document: _4_0_Kotiranje</desc>
 <defs/>
 <g id="Page002" inkscape:groupmode="layer" inkscape:label="TechDraw">
  <g id="A3_Land_PeF_DWD_DR2.svg" style="stroke: none;" transform="scale(10.000000, 10.000000)">
   <metadata id="metadata8">
    <rdf:RDF>
     <cc:Work rdf:about="">
      <dc:format>image/svg+xml</dc:format>
      <dc:type rdf:resource="http://purl.org/dc/dcmitype/StillImage"/>
     </cc:Work>
    </rdf:RDF>
   </metadata>
  </g>
  <g fill="none" fill-rule="evenodd" id="DrawingContent" stroke="black" stroke-linecap="square" stroke-linejoin="bevel" stroke-width="1">
   <g fill="#f1f3f5" fill-opacity="0" font-family="Sans Serif" font-size="31.75" font-style="normal" font-weight="400" stroke="none" transform="matrix(1,0,0,1,1068.17,1052.82)">
    <path d="M-250,125 L250,125 L250,-125 L-250,-125 L-250,125" fill-rule="evenodd" vector-effect="non-scaling-stroke"/>
   </g>
   <g fill="#f1f3f5" fill-opacity="0" font-family="Sans Serif" font-size="31.75" font-style="normal" font-weight="400" stroke="none" transform="matrix(1,0,0,1,1068.17,1052.82)">
    <path d="M160,0 C160,-22.0914 142.091,-40 120,-40 C97.9086,-40 80,-22.0914 80,-9.33948e-15 L80,-4.89859e-15 C80,22.0914 97.9086,40 120,40 C142.091,40 160,22.0914 160,8.88178e-15 " fill-rule="evenodd" vector-effect="non-scaling-stroke"/>
   </g>
   <g fill="#f1f3f5" fill-opacity="0" font-family="Sans Serif" font-size="31.75" font-style="normal" font-weight="400" stroke="none" transform="matrix(1,0,0,1,1068.17,1052.82)">
    <path d="M-80,0 C-80,-22.0914 -97.9086,-40 -120,-40 C-142.091,-40 -160,-22.0914 -160,-9.33948e-15 L-160,-4.89859e-15 C-160,22.0914 -142.091,40 -120,40 C-97.9086,40 -80,22.0914 -80,8.88178e-15 " fill-rule="evenodd" vector-effect="non-scaling-stroke"/>
   </g>
   <g fill="#f1f3f5" fill-opacity="0" font-family="Sans Serif" font-size="31.75" font-style="normal" font-weight="400" stroke="none" transform="matrix(1,0,0,1,1068.17,1052.82)">
    <path d="M160,0 C160,-22.0914 142.091,-40 120,-40 L120,0 L160,0" fill-rule="evenodd" vector-effect="non-scaling-stroke"/>
   </g>
   <g fill="#f1f3f5" fill-opacity="0" font-family="Sans Serif" font-size="31.75" font-style="normal" font-weight="400" stroke="none" transform="matrix(1,0,0,1,1068.17,1052.82)">
    <path d="M120,0 L120,-40 C97.9086,-40 80,-22.0914 80,-9.33948e-15 L80,7.79148e-13 L120,0" fill-rule="evenodd" vector-effect="non-scaling-stroke"/>
   </g>
   <g fill="#f1f3f5" fill-opacity="0" font-family="Sans Serif" font-size="31.75" font-style="normal" font-weight="400" stroke="none" transform="matrix(1,0,0,1,1068.17,1052.82)">
    <path d="M80,-4.89859e-15 C80,22.0914 97.9086,40 120,40 L120,0 L80,7.79148e-13" fill-rule="evenodd" vector-effect="non-scaling-stroke"/>
   </g>
   <g fill="#f1f3f5" fill-opacity="0" font-family="Sans Serif" font-size="31.75" font-style="normal" font-weight="400" stroke="none" transform="matrix(1,0,0,1,1068.17,1052.82)">
    <path d="M120,40 C142.091,40 160,22.0914 160,8.88178e-15 L120,0 L120,40" fill-rule="evenodd" vector-effect="non-scaling-stroke"/>
   </g>
   <g fill="#f1f3f5" fill-opacity="0" font-family="Sans Serif" font-size="31.75" font-style="normal" font-weight="400" stroke="none" transform="matrix(1,0,0,1,1068.17,1052.82)">
    <path d="M-120,0 L-120,-40 C-142.091,-40 -160,-22.0914 -160,-9.33948e-15 L-160,7.79148e-13 L-120,0" fill-rule="evenodd" vector-effect="non-scaling-stroke"/>
   </g>
   <g fill="#f1f3f5" fill-opacity="0" font-family="Sans Serif" font-size="31.75" font-style="normal" font-weight="400" stroke="none" transform="matrix(1,0,0,1,1068.17,1052.82)">
    <path d="M-80,0 C-80,-22.0914 -97.9086,-40 -120,-40 L-120,0 L-80,0" fill-rule="evenodd" vector-effect="non-scaling-stroke"/>
   </g>
   <g fill="#f1f3f5" fill-opacity="0" font-family="Sans Serif" font-size="31.75" font-style="normal" font-weight="400" stroke="none" transform="matrix(1,0,0,1,1068.17,1052.82)">
    <path d="M-120,40 C-97.9086,40 -80,22.0914 -80,8.88178e-15 L-120,0 L-120,40" fill-rule="evenodd" vector-effect="non-scaling-stroke"/>
   </g>
   <g fill="#f1f3f5" fill-opacity="0" font-family="Sans Serif" font-size="31.75" font-style="normal" font-weight="400" stroke="none" transform="matrix(1,0,0,1,1068.17,1052.82)">
    <path d="M-160,-4.89859e-15 C-160,22.0914 -142.091,40 -120,40 L-120,0 L-160,7.79148e-13" fill-rule="evenodd" vector-effect="non-scaling-stroke"/>
   </g>
   <g fill="none" font-family="Sans Serif" font-size="31.75" font-style="normal" font-weight="400" stroke="#212529" stroke-linecap="round" stroke-linejoin="bevel" stroke-opacity="1" stroke-width="5" transform="matrix(1,0,0,1,1068.17,1052.82)">
    <path d="M-250,125 L250,125" fill-rule="evenodd" vector-effect="none"/>
   </g>
   <g fill="none" font-family="Sans Serif" font-size="31.75" font-style="normal" font-weight="400" stroke="#212529" stroke-linecap="round" stroke-linejoin="bevel" stroke-opacity="1" stroke-width="5" transform="matrix(1,0,0,1,1068.17,1052.82)">
    <path d="M250,125 L250,-125" fill-rule="evenodd" vector-effect="none"/>
   </g>
   <g fill="none" font-family="Sans Serif" font-size="31.75" font-style="normal" font-weight="400" stroke="#212529" stroke-linecap="round" stroke-linejoin="bevel" stroke-opacity="1" stroke-width="5" transform="matrix(1,0,0,1,1068.17,1052.82)">
    <path d="M250,-125 L-250,-125" fill-rule="evenodd" vector-effect="none"/>
   </g>
   <g fill="none" font-family="Sans Serif" font-size="31.75" font-style="normal" font-weight="400" stroke="#212529" stroke-linecap="round" stroke-linejoin="bevel" stroke-opacity="1" stroke-width="5" transform="matrix(1,0,0,1,1068.17,1052.82)">
    <path d="M-250,-125 L-250,125" fill-rule="evenodd" vector-effect="none"/>
   </g>
   <g fill="none" font-family="Sans Serif" font-size="31.75" font-style="normal" font-weight="400" stroke="#212529" stroke-linecap="round" stroke-linejoin="bevel" stroke-opacity="1" stroke-width="5" transform="matrix(1,0,0,1,1068.17,1052.82)">
    <path d="M-80,0 C-80,22.0914 -97.9086,40 -120,40 C-142.091,40 -160,22.0914 -160,0 C-160,-22.0914 -142.091,-40 -120,-40 C-97.9086,-40 -80,-22.0914 -80,0 " fill-rule="evenodd" vector-effect="none"/>
   </g>
   <g fill="none" font-family="Sans Serif" font-size="31.75" font-style="normal" font-weight="400" stroke="#212529" stroke-linecap="round" stroke-linejoin="bevel" stroke-opacity="1" stroke-width="5" transform="matrix(1,0,0,1,1068.17,1052.82)">
    <path d="M160,0 C160,22.0914 142.091,40 120,40 C97.9086,40 80,22.0914 80,0 C80,-22.0914 97.9086,-40 120,-40 C142.091,-40 160,-22.0914 160,0 " fill-rule="evenodd" vector-effect="none"/>
   </g>
   <g fill="none" font-family="Sans Serif" font-size="31.75" font-style="normal" font-weight="400" stroke="#212529" stroke-dasharray="30,7.5" stroke-dashoffset="7.5" stroke-linecap="round" stroke-linejoin="bevel" stroke-opacity="1" stroke-width="2.5" transform="matrix(1,0,0,1,1068.17,1052.82)">
    <path d="M-250,125 L250,125" fill-rule="evenodd" vector-effect="none"/>
   </g>
   <g fill="none" font-family="Sans Serif" font-size="31.75" font-style="normal" font-weight="400" stroke="#212529" stroke-dasharray="30,7.5" stroke-dashoffset="7.5" stroke-linecap="round" stroke-linejoin="bevel" stroke-opacity="1" stroke-width="2.5" transform="matrix(1,0,0,1,1068.17,1052.82)">
    <path d="M250,125 L250,-125" fill-rule="evenodd" vector-effect="none"/>
   </g>
   <g fill="none" font-family="Sans Serif" font-size="31.75" font-style="normal" font-weight="400" stroke="#212529" stroke-dasharray="30,7.5" stroke-dashoffset="7.5" stroke-linecap="round" stroke-linejoin="bevel" stroke-opacity="1" stroke-width="2.5" transform="matrix(1,0,0,1,1068.17,1052.82)">
    <path d="M250,-125 L-250,-125" fill-rule="evenodd" vector-effect="none"/>
   </g>
   <g fill="none" font-family="Sans Serif" font-size="31.75" font-style="normal" font-weight="400" stroke="#212529" stroke-dasharray="30,7.5" stroke-dashoffset="7.5" stroke-linecap="round" stroke-linejoin="bevel" stroke-opacity="1" stroke-width="2.5" transform="matrix(1,0,0,1,1068.17,1052.82)">
    <path d="M-250,-125 L-250,125" fill-rule="evenodd" vector-effect="none"/>
   </g>
   <g fill="none" font-family="Sans Serif" font-size="31.75" font-style="normal" font-weight="400" stroke="#212529" stroke-dasharray="30,7.5" stroke-dashoffset="7.5" stroke-linecap="round" stroke-linejoin="bevel" stroke-opacity="1" stroke-width="2.5" transform="matrix(1,0,0,1,1068.17,1052.82)">
    <path d="M-80,0 C-80,22.0914 -97.9086,40 -120,40 C-142.091,40 -160,22.0914 -160,0 C-160,-22.0914 -142.091,-40 -120,-40 C-97.9086,-40 -80,-22.0914 -80,0 " fill-rule="evenodd" vector-effect="none"/>
   </g>
   <g fill="none" font-family="Sans Serif" font-size="31.75" font-style="normal" font-weight="400" stroke="#212529" stroke-dasharray="30,7.5" stroke-dashoffset="7.5" stroke-linecap="round" stroke-linejoin="bevel" stroke-opacity="1" stroke-width="2.5" transform="matrix(1,0,0,1,1068.17,1052.82)">
    <path d="M160,0 C160,22.0914 142.091,40 120,40 C97.9086,40 80,22.0914 80,0 C80,-22.0914 97.9086,-40 120,-40 C142.091,-40 160,-22.0914 160,0 " fill-rule="evenodd" vector-effect="none"/>
   </g>
   <g fill="none" font-family="Sans Serif" font-size="31.75" font-style="normal" font-weight="400" stroke="#212529" stroke-dasharray="30,7.5,2.5,7.5" stroke-dashoffset="0" stroke-linecap="round" stroke-linejoin="bevel" stroke-opacity="1" stroke-width="2.5" transform="matrix(1,0,0,1,1068.17,1052.82)">
    <path d="M-60,0 L-180,0" fill-rule="evenodd" vector-effect="none"/>
   </g>
   <g fill="none" font-family="Sans Serif" font-size="31.75" font-style="normal" font-weight="400" stroke="#212529" stroke-dasharray="30,7.5,2.5,7.5" stroke-dashoffset="0" stroke-linecap="round" stroke-linejoin="bevel" stroke-opacity="1" stroke-width="2.5" transform="matrix(1,0,0,1,1068.17,1052.82)">
    <path d="M-120,60 L-120,-60" fill-rule="evenodd" vector-effect="none"/>
   </g>
   <g fill="none" font-family="Sans Serif" font-size="31.75" font-style="normal" font-weight="400" stroke="#212529" stroke-dasharray="30,7.5,2.5,7.5" stroke-dashoffset="0" stroke-linecap="round" stroke-linejoin="bevel" stroke-opacity="1" stroke-width="2.5" transform="matrix(1,0,0,1,1068.17,1052.82)">
    <path d="M180,0 L60,0" fill-rule="evenodd" vector-effect="none"/>
   </g>
   <g fill="none" font-family="Sans Serif" font-size="31.75" font-style="normal" font-weight="400" stroke="#212529" stroke-dasharray="30,7.5,2.5,7.5" stroke-dashoffset="0" stroke-linecap="round" stroke-linejoin="bevel" stroke-opacity="1" stroke-width="2.5" transform="matrix(1,0,0,1,1068.17,1052.82)">
    <path d="M120,60 L120,-60" fill-rule="evenodd" vector-effect="none"/>
   </g>
   <g fill="none" font-family="Sans Serif" font-size="31.75" font-style="normal" font-weight="400" stroke="#212529" stroke-linecap="square" stroke-linejoin="bevel" stroke-opacity="1" stroke-width="1" transform="matrix(1,0,0,1,1040.26,1274.56)">
    <text fill="#212529" fill-opacity="1" font-family="ISOCPEUR" font-size="53" font-style="normal" font-weight="400" stroke="none" x="4" xml:space="preserve" y="55.2344">50</text>
   </g>
   <g fill="none" font-family="Sans Serif" font-size="31.75" font-style="normal" font-weight="400" stroke="#212529" stroke-linecap="round" stroke-linejoin="bevel" stroke-opacity="1" stroke-width="2.5" transform="matrix(1,0,0,1,1068.17,1052.82)">
    <path d="M-250,294.994 L250,294.994 M250,125 L250,314.994 M-250,125 L-250,314.994" fill-rule="evenodd" vector-effect="none"/>
   </g>
   <g fill="#212529" fill-opacity="1" font-family="Sans Serif" font-size="31.75" font-style="normal" font-weight="400" stroke="#212529" stroke-linecap="round" stroke-linejoin="bevel" stroke-opacity="1" stroke-width="2.5" transform="matrix(1,0,0,1,1318.17,1347.81)">
    <path d="M0,0 L-35,-5.83333 L-35,5.83333 L0,0" fill-rule="evenodd" vector-effect="none"/>
   </g>
   <g fill="#212529" fill-opacity="1" font-family="Sans Serif" font-size="31.75" font-style="normal" font-weight="400" stroke="#212529" stroke-linecap="round" stroke-linejoin="bevel" stroke-opacity="1" stroke-width="2.5" transform="matrix(1,0,0,1,818.166,1347.81)">
    <path d="M0,0 L35,5.83333 L35,-5.83333 L0,0" fill-rule="evenodd" vector-effect="none"/>
   </g>
   <g fill="none" font-family="Sans Serif" font-size="31.75" font-style="normal" font-weight="400" stroke="#212529" stroke-linecap="square" stroke-linejoin="bevel" stroke-opacity="1" stroke-width="1" transform="matrix(1,0,0,1,858.674,1204.56)">
    <text fill="#212529" fill-opacity="1" font-family="ISOCPEUR" font-size="53" font-style="normal" font-weight="400" stroke="none" x="4" xml:space="preserve" y="55.2344">13</text>
   </g>
   <g fill="none" font-family="Sans Serif" font-size="31.75" font-style="normal" font-weight="400" stroke="#212529" stroke-linecap="round" stroke-linejoin="bevel" stroke-opacity="1" stroke-width="2.5" transform="matrix(1,0,0,1,1068.17,1052.82)">
    <path d="M-120,224.994 L-250,224.994 M-250,125 L-250,244.994 M-120,60 L-120,244.994" fill-rule="evenodd" vector-effect="none"/>
   </g>
   <g fill="#212529" fill-opacity="1" font-family="Sans Serif" font-size="31.75" font-style="normal" font-weight="400" stroke="#212529" stroke-linecap="round" stroke-linejoin="bevel" stroke-opacity="1" stroke-width="2.5" transform="matrix(1,0,0,1,818.166,1277.81)">
    <path d="M0,0 L35,5.83333 L35,-5.83333 L0,0" fill-rule="evenodd" vector-effect="none"/>
   </g>
   <g fill="#212529" fill-opacity="1" font-family="Sans Serif" font-size="31.75" font-style="normal" font-weight="400" stroke="#212529" stroke-linecap="round" stroke-linejoin="bevel" stroke-opacity="1" stroke-width="2.5" transform="matrix(1,0,0,1,948.166,1277.81)">
    <path d="M0,0 L-35,-5.83333 L-35,5.83333 L0,0" fill-rule="evenodd" vector-effect="none"/>
   </g>
   <g fill="none" font-family="Sans Serif" font-size="31.75" font-style="normal" font-weight="400" stroke="#212529" stroke-linecap="square" stroke-linejoin="bevel" stroke-opacity="1" stroke-width="1" transform="matrix(1,0,0,1,1038.55,1204.56)">
    <text fill="#212529" fill-opacity="1" font-family="ISOCPEUR" font-size="53" font-style="normal" font-weight="400" stroke="none" x="4" xml:space="preserve" y="55.2344">24</text>
   </g>
   <g fill="none" font-family="Sans Serif" font-size="31.75" font-style="normal" font-weight="400" stroke="#212529" stroke-linecap="round" stroke-linejoin="bevel" stroke-opacity="1" stroke-width="2.5" transform="matrix(1,0,0,1,1068.17,1052.82)">
    <path d="M-120,224.994 L120,224.994 M120,60 L120,244.994 M-120,60 L-120,244.994" fill-rule="evenodd" vector-effect="none"/>
   </g>
   <g fill="#212529" fill-opacity="1" font-family="Sans Serif" font-size="31.75" font-style="normal" font-weight="400" stroke="#212529" stroke-linecap="round" stroke-linejoin="bevel" stroke-opacity="1" stroke-width="2.5" transform="matrix(1,0,0,1,1188.17,1277.81)">
    <path d="M0,0 L-35,-5.83333 L-35,5.83333 L0,0" fill-rule="evenodd" vector-effect="none"/>
   </g>
   <g fill="#212529" fill-opacity="1" font-family="Sans Serif" font-size="31.75" font-style="normal" font-weight="400" stroke="#212529" stroke-linecap="round" stroke-linejoin="bevel" stroke-opacity="1" stroke-width="2.5" transform="matrix(1,0,0,1,948.166,1277.81)">
    <path d="M0,0 L35,5.83333 L35,-5.83333 L0,0" fill-rule="evenodd" vector-effect="none"/>
   </g>
   <g fill="#f1f3f5" fill-opacity="0" font-family="Sans Serif" font-size="31.75" font-style="normal" font-weight="400" stroke="none" transform="matrix(1,0,0,1,1990.7,1052.82)">
    <path d="M-250,125 L250,125 L250,-125 L-250,-125 L-250,125" fill-rule="evenodd" vector-effect="non-scaling-stroke"/>
   </g>
   <g fill="#f1f3f5" fill-opacity="0" font-family="Sans Serif" font-size="31.75" font-style="normal" font-weight="400" stroke="none" transform="matrix(1,0,0,1,1990.7,1052.82)">
    <path d="M160,0 C160,-22.0914 142.091,-40 120,-40 C97.9086,-40 80,-22.0914 80,-9.33948e-15 L80,-4.89859e-15 C80,22.0914 97.9086,40 120,40 C142.091,40 160,22.0914 160,8.88178e-15 " fill-rule="evenodd" vector-effect="non-scaling-stroke"/>
   </g>
   <g fill="#f1f3f5" fill-opacity="0" font-family="Sans Serif" font-size="31.75" font-style="normal" font-weight="400" stroke="none" transform="matrix(1,0,0,1,1990.7,1052.82)">
    <path d="M-80,0 C-80,-22.0914 -97.9086,-40 -120,-40 C-142.091,-40 -160,-22.0914 -160,-9.33948e-15 L-160,-4.89859e-15 C-160,22.0914 -142.091,40 -120,40 C-97.9086,40 -80,22.0914 -80,8.88178e-15 " fill-rule="evenodd" vector-effect="non-scaling-stroke"/>
   </g>
   <g fill="#f1f3f5" fill-opacity="0" font-family="Sans Serif" font-size="31.75" font-style="normal" font-weight="400" stroke="none" transform="matrix(1,0,0,1,1990.7,1052.82)">
    <path d="M160,0 C160,-22.0914 142.091,-40 120,-40 L120,0 L160,0" fill-rule="evenodd" vector-effect="non-scaling-stroke"/>
   </g>
   <g fill="#f1f3f5" fill-opacity="0" font-family="Sans Serif" font-size="31.75" font-style="normal" font-weight="400" stroke="none" transform="matrix(1,0,0,1,1990.7,1052.82)">
    <path d="M120,0 L120,-40 C97.9086,-40 80,-22.0914 80,-9.33948e-15 L80,7.79148e-13 L120,0" fill-rule="evenodd" vector-effect="non-scaling-stroke"/>
   </g>
   <g fill="#f1f3f5" fill-opacity="0" font-family="Sans Serif" font-size="31.75" font-style="normal" font-weight="400" stroke="none" transform="matrix(1,0,0,1,1990.7,1052.82)">
    <path d="M80,-4.89859e-15 C80,22.0914 97.9086,40 120,40 L120,0 L80,7.79148e-13" fill-rule="evenodd" vector-effect="non-scaling-stroke"/>
   </g>
   <g fill="#f1f3f5" fill-opacity="0" font-family="Sans Serif" font-size="31.75" font-style="normal" font-weight="400" stroke="none" transform="matrix(1,0,0,1,1990.7,1052.82)">
    <path d="M120,40 C142.091,40 160,22.0914 160,8.88178e-15 L120,0 L120,40" fill-rule="evenodd" vector-effect="non-scaling-stroke"/>
   </g>
   <g fill="#f1f3f5" fill-opacity="0" font-family="Sans Serif" font-size="31.75" font-style="normal" font-weight="400" stroke="none" transform="matrix(1,0,0,1,1990.7,1052.82)">
    <path d="M-120,0 L-120,-40 C-142.091,-40 -160,-22.0914 -160,-9.33948e-15 L-160,7.79148e-13 L-120,0" fill-rule="evenodd" vector-effect="non-scaling-stroke"/>
   </g>
   <g fill="#f1f3f5" fill-opacity="0" font-family="Sans Serif" font-size="31.75" font-style="normal" font-weight="400" stroke="none" transform="matrix(1,0,0,1,1990.7,1052.82)">
    <path d="M-80,0 C-80,-22.0914 -97.9086,-40 -120,-40 L-120,0 L-80,0" fill-rule="evenodd" vector-effect="non-scaling-stroke"/>
   </g>
   <g fill="#f1f3f5" fill-opacity="0" font-family="Sans Serif" font-size="31.75" font-style="normal" font-weight="400" stroke="none" transform="matrix(1,0,0,1,1990.7,1052.82)">
    <path d="M-120,40 C-97.9086,40 -80,22.0914 -80,8.88178e-15 L-120,0 L-120,40" fill-rule="evenodd" vector-effect="non-scaling-stroke"/>
   </g>
   <g fill="#f1f3f5" fill-opacity="0" font-family="Sans Serif" font-size="31.75" font-style="normal" font-weight="400" stroke="none" transform="matrix(1,0,0,1,1990.7,1052.82)">
    <path d="M-160,-4.89859e-15 C-160,22.0914 -142.091,40 -120,40 L-120,0 L-160,7.79148e-13" fill-rule="evenodd" vector-effect="non-scaling-stroke"/>
   </g>
   <g fill="none" font-family="Sans Serif" font-size="31.75" font-style="normal" font-weight="400" stroke="#212529" stroke-linecap="round" stroke-linejoin="bevel" stroke-opacity="1" stroke-width="5" transform="matrix(1,0,0,1,1990.7,1052.82)">
    <path d="M-250,125 L250,125" fill-rule="evenodd" vector-effect="none"/>
   </g>
   <g fill="none" font-family="Sans Serif" font-size="31.75" font-style="normal" font-weight="400" stroke="#212529" stroke-linecap="round" stroke-linejoin="bevel" stroke-opacity="1" stroke-width="5" transform="matrix(1,0,0,1,1990.7,1052.82)">
    <path d="M250,125 L250,-125" fill-rule="evenodd" vector-effect="none"/>
   </g>
   <g fill="none" font-family="Sans Serif" font-size="31.75" font-style="normal" font-weight="400" stroke="#212529" stroke-linecap="round" stroke-linejoin="bevel" stroke-opacity="1" stroke-width="5" transform="matrix(1,0,0,1,1990.7,1052.82)">
    <path d="M250,-125 L-250,-125" fill-rule="evenodd" vector-effect="none"/>
   </g>
   <g fill="none" font-family="Sans Serif" font-size="31.75" font-style="normal" font-weight="400" stroke="#212529" stroke-linecap="round" stroke-linejoin="bevel" stroke-opacity="1" stroke-width="5" transform="matrix(1,0,0,1,1990.7,1052.82)">
    <path d="M-250,-125 L-250,125" fill-rule="evenodd" vector-effect="none"/>
   </g>
   <g fill="none" font-family="Sans Serif" font-size="31.75" font-style="normal" font-weight="400" stroke="#212529" stroke-linecap="round" stroke-linejoin="bevel" stroke-opacity="1" stroke-width="5" transform="matrix(1,0,0,1,1990.7,1052.82)">
    <path d="M-80,0 C-80,22.0914 -97.9086,40 -120,40 C-142.091,40 -160,22.0914 -160,0 C-160,-22.0914 -142.091,-40 -120,-40 C-97.9086,-40 -80,-22.0914 -80,0 " fill-rule="evenodd" vector-effect="none"/>
   </g>
   <g fill="none" font-family="Sans Serif" font-size="31.75" font-style="normal" font-weight="400" stroke="#212529" stroke-linecap="round" stroke-linejoin="bevel" stroke-opacity="1" stroke-width="5" transform="matrix(1,0,0,1,1990.7,1052.82)">
    <path d="M160,0 C160,22.0914 142.091,40 120,40 C97.9086,40 80,22.0914 80,0 C80,-22.0914 97.9086,-40 120,-40 C142.091,-40 160,-22.0914 160,0 " fill-rule="evenodd" vector-effect="none"/>
   </g>
   <g fill="none" font-family="Sans Serif" font-size="31.75" font-style="normal" font-weight="400" stroke="#212529" stroke-dasharray="30,7.5" stroke-dashoffset="7.5" stroke-linecap="round" stroke-linejoin="bevel" stroke-opacity="1" stroke-width="2.5" transform="matrix(1,0,0,1,1990.7,1052.82)">
    <path d="M-250,125 L250,125" fill-rule="evenodd" vector-effect="none"/>
   </g>
   <g fill="none" font-family="Sans Serif" font-size="31.75" font-style="normal" font-weight="400" stroke="#212529" stroke-dasharray="30,7.5" stroke-dashoffset="7.5" stroke-linecap="round" stroke-linejoin="bevel" stroke-opacity="1" stroke-width="2.5" transform="matrix(1,0,0,1,1990.7,1052.82)">
    <path d="M250,125 L250,-125" fill-rule="evenodd" vector-effect="none"/>
   </g>
   <g fill="none" font-family="Sans Serif" font-size="31.75" font-style="normal" font-weight="400" stroke="#212529" stroke-dasharray="30,7.5" stroke-dashoffset="7.5" stroke-linecap="round" stroke-linejoin="bevel" stroke-opacity="1" stroke-width="2.5" transform="matrix(1,0,0,1,1990.7,1052.82)">
    <path d="M250,-125 L-250,-125" fill-rule="evenodd" vector-effect="none"/>
   </g>
   <g fill="none" font-family="Sans Serif" font-size="31.75" font-style="normal" font-weight="400" stroke="#212529" stroke-dasharray="30,7.5" stroke-dashoffset="7.5" stroke-linecap="round" stroke-linejoin="bevel" stroke-opacity="1" stroke-width="2.5" transform="matrix(1,0,0,1,1990.7,1052.82)">
    <path d="M-250,-125 L-250,125" fill-rule="evenodd" vector-effect="none"/>
   </g>
   <g fill="none" font-family="Sans Serif" font-size="31.75" font-style="normal" font-weight="400" stroke="#212529" stroke-dasharray="30,7.5" stroke-dashoffset="7.5" stroke-linecap="round" stroke-linejoin="bevel" stroke-opacity="1" stroke-width="2.5" transform="matrix(1,0,0,1,1990.7,1052.82)">
    <path d="M-80,0 C-80,22.0914 -97.9086,40 -120,40 C-142.091,40 -160,22.0914 -160,0 C-160,-22.0914 -142.091,-40 -120,-40 C-97.9086,-40 -80,-22.0914 -80,0 " fill-rule="evenodd" vector-effect="none"/>
   </g>
   <g fill="none" font-family="Sans Serif" font-size="31.75" font-style="normal" font-weight="400" stroke="#212529" stroke-dasharray="30,7.5" stroke-dashoffset="7.5" stroke-linecap="round" stroke-linejoin="bevel" stroke-opacity="1" stroke-width="2.5" transform="matrix(1,0,0,1,1990.7,1052.82)">
    <path d="M160,0 C160,22.0914 142.091,40 120,40 C97.9086,40 80,22.0914 80,0 C80,-22.0914 97.9086,-40 120,-40 C142.091,-40 160,-22.0914 160,0 " fill-rule="evenodd" vector-effect="none"/>
   </g>
   <g fill="none" font-family="Sans Serif" font-size="31.75" font-style="normal" font-weight="400" stroke="#212529" stroke-dasharray="42,10.5" stroke-dashoffset="10.5" stroke-linecap="round" stroke-linejoin="bevel" stroke-opacity="1" stroke-width="3.5" transform="matrix(1,0,0,1,1990.7,1052.82)">
    <path d="M-60,0 L-180,0" fill-rule="evenodd" vector-effect="none"/>
   </g>
   <g fill="none" font-family="Sans Serif" font-size="31.75" font-style="normal" font-weight="400" stroke="#212529" stroke-dasharray="42,10.5" stroke-dashoffset="10.5" stroke-linecap="round" stroke-linejoin="bevel" stroke-opacity="1" stroke-width="3.5" transform="matrix(1,0,0,1,1990.7,1052.82)">
    <path d="M-120,60 L-120,-60" fill-rule="evenodd" vector-effect="none"/>
   </g>
   <g fill="none" font-family="Sans Serif" font-size="31.75" font-style="normal" font-weight="400" stroke="#212529" stroke-dasharray="42,10.5" stroke-dashoffset="10.5" stroke-linecap="round" stroke-linejoin="bevel" stroke-opacity="1" stroke-width="3.5" transform="matrix(1,0,0,1,1990.7,1052.82)">
    <path d="M180,0 L60,0" fill-rule="evenodd" vector-effect="none"/>
   </g>
   <g fill="none" font-family="Sans Serif" font-size="31.75" font-style="normal" font-weight="400" stroke="#212529" stroke-dasharray="42,10.5" stroke-dashoffset="10.5" stroke-linecap="round" stroke-linejoin="bevel" stroke-opacity="1" stroke-width="3.5" transform="matrix(1,0,0,1,1990.7,1052.82)">
    <path d="M120,60 L120,-60" fill-rule="evenodd" vector-effect="none"/>
   </g>
   <g fill="none" font-family="Sans Serif" font-size="31.75" font-style="normal" font-weight="400" stroke="#212529" stroke-linecap="square" stroke-linejoin="bevel" stroke-opacity="1" stroke-width="1" transform="matrix(1,0,0,1,1962.79,1344.52)">
    <text fill="#212529" fill-opacity="1" font-family="ISOCPEUR" font-size="53" font-style="normal" font-weight="400" stroke="none" x="4" xml:space="preserve" y="55.2344">50</text>
   </g>
   <g fill="none" font-family="Sans Serif" font-size="31.75" font-style="normal" font-weight="400" stroke="#212529" stroke-linecap="round" stroke-linejoin="bevel" stroke-opacity="1" stroke-width="2.5" transform="matrix(1,0,0,1,1990.7,1052.82)">
    <path d="M-250,364.953 L250,364.953 M250,125 L250,384.953 M-250,125 L-250,384.953" fill-rule="evenodd" vector-effect="none"/>
   </g>
   <g fill="#212529" fill-opacity="1" font-family="Sans Serif" font-size="31.75" font-style="normal" font-weight="400" stroke="#212529" stroke-linecap="round" stroke-linejoin="bevel" stroke-opacity="1" stroke-width="2.5" transform="matrix(1,0,0,1,2240.7,1417.77)">
    <path d="M0,0 L-35,-5.83333 L-35,5.83333 L0,0" fill-rule="evenodd" vector-effect="none"/>
   </g>
   <g fill="#212529" fill-opacity="1" font-family="Sans Serif" font-size="31.75" font-style="normal" font-weight="400" stroke="#212529" stroke-linecap="round" stroke-linejoin="bevel" stroke-opacity="1" stroke-width="2.5" transform="matrix(1,0,0,1,1740.7,1417.77)">
    <path d="M0,0 L35,5.83333 L35,-5.83333 L0,0" fill-rule="evenodd" vector-effect="none"/>
   </g>
   <g fill="none" font-family="Sans Serif" font-size="31.75" font-style="normal" font-weight="400" stroke="#212529" stroke-linecap="square" stroke-linejoin="bevel" stroke-opacity="1" stroke-width="1" transform="matrix(1,0,0,1,1781.21,1204.52)">
    <text fill="#212529" fill-opacity="1" font-family="ISOCPEUR" font-size="53" font-style="normal" font-weight="400" stroke="none" x="4" xml:space="preserve" y="55.2344">13</text>
   </g>
   <g fill="none" font-family="Sans Serif" font-size="31.75" font-style="normal" font-weight="400" stroke="#212529" stroke-linecap="round" stroke-linejoin="bevel" stroke-opacity="1" stroke-width="2.5" transform="matrix(1,0,0,1,1990.7,1052.82)">
    <path d="M-120,224.953 L-250,224.953 M-250,125 L-250,244.953 M-120,60 L-120,244.953" fill-rule="evenodd" vector-effect="none"/>
   </g>
   <g fill="#212529" fill-opacity="1" font-family="Sans Serif" font-size="31.75" font-style="normal" font-weight="400" stroke="#212529" stroke-linecap="round" stroke-linejoin="bevel" stroke-opacity="1" stroke-width="2.5" transform="matrix(1,0,0,1,1740.7,1277.77)">
    <path d="M0,0 L35,5.83333 L35,-5.83333 L0,0" fill-rule="evenodd" vector-effect="none"/>
   </g>
   <g fill="#212529" fill-opacity="1" font-family="Sans Serif" font-size="31.75" font-style="normal" font-weight="400" stroke="#212529" stroke-linecap="round" stroke-linejoin="bevel" stroke-opacity="1" stroke-width="2.5" transform="matrix(1,0,0,1,1870.7,1277.77)">
    <path d="M0,0 L-35,-5.83333 L-35,5.83333 L0,0" fill-rule="evenodd" vector-effect="none"/>
   </g>
   <g fill="none" font-family="Sans Serif" font-size="31.75" font-style="normal" font-weight="400" stroke="#212529" stroke-linecap="square" stroke-linejoin="bevel" stroke-opacity="1" stroke-width="1" transform="matrix(1,0,0,1,1897.79,1274.52)">
    <text fill="#212529" fill-opacity="1" font-family="ISOCPEUR" font-size="53" font-style="normal" font-weight="400" stroke="none" x="4" xml:space="preserve" y="55.2344">37</text>
   </g>
   <g fill="none" font-family="Sans Serif" font-size="31.75" font-style="normal" font-weight="400" stroke="#212529" stroke-linecap="round" stroke-linejoin="bevel" stroke-opacity="1" stroke-width="2.5" transform="matrix(1,0,0,1,1990.7,1052.82)">
    <path d="M120,294.953 L-250,294.953 M-250,125 L-250,314.953 M120,60 L120,314.953" fill-rule="evenodd" vector-effect="none"/>
   </g>
   <g fill="#212529" fill-opacity="1" font-family="Sans Serif" font-size="31.75" font-style="normal" font-weight="400" stroke="#212529" stroke-linecap="round" stroke-linejoin="bevel" stroke-opacity="1" stroke-width="2.5" transform="matrix(1,0,0,1,1740.7,1347.77)">
    <path d="M0,0 L35,5.83333 L35,-5.83333 L0,0" fill-rule="evenodd" vector-effect="none"/>
   </g>
   <g fill="#212529" fill-opacity="1" font-family="Sans Serif" font-size="31.75" font-style="normal" font-weight="400" stroke="#212529" stroke-linecap="round" stroke-linejoin="bevel" stroke-opacity="1" stroke-width="2.5" transform="matrix(1,0,0,1,2110.7,1347.77)">
    <path d="M0,0 L-35,-5.83333 L-35,5.83333 L0,0" fill-rule="evenodd" vector-effect="none"/>
   </g>
   <g fill="none" font-family="Sans Serif" font-size="31.75" font-style="normal" font-weight="400" stroke="#212529" stroke-linecap="square" stroke-linejoin="bevel" stroke-opacity="1" stroke-width="1" transform="matrix(1,0,0,1,1281.22,1417.37)">
    <text fill="#212529" fill-opacity="1" font-family="ISOCPEUR" font-size="53" font-style="normal" font-weight="400" stroke="none" x="4" xml:space="preserve" y="55.2344">izhodiščna</text>
   </g>
   <g fill="none" font-family="Sans Serif" font-size="31.75" font-style="normal" font-weight="400" stroke="#212529" stroke-linecap="square" stroke-linejoin="bevel" stroke-opacity="1" stroke-width="1" transform="matrix(1,0,0,1,1281.22,1417.37)">
    <text fill="#212529" fill-opacity="1" font-family="ISOCPEUR" font-size="53" font-style="normal" font-weight="400" stroke="none" x="4" xml:space="preserve" y="120.234">ravnina</text>
   </g>
   <g fill="none" font-family="Sans Serif" font-size="31.75" font-style="normal" font-weight="400" stroke="#000000" stroke-linecap="square" stroke-linejoin="bevel" stroke-opacity="1" stroke-width="1" transform="matrix(1,0,0,1,1281.22,1417.37)">
    <text fill="#000000" fill-opacity="1" font-family="Sans Serif" font-size="31.75" font-style="normal" font-weight="400" stroke="none" x="154.25" xml:space="preserve" y="120.234"/>
   </g>
   <g fill="none" font-family="Sans Serif" font-size="31.75" font-style="normal" font-weight="400" stroke="#000000" stroke-linecap="round" stroke-linejoin="bevel" stroke-opacity="1" stroke-width="2.5" transform="matrix(1,0,0,1,1731.21,1086.81)">
    <path d="M-0.840423,1.53499 L-253.297,462.633 L-458.489,462.633" fill-rule="evenodd" vector-effect="none"/>
   </g>
   <g fill="#000000" fill-opacity="1" font-family="Sans Serif" font-size="31.75" font-style="normal" font-weight="400" stroke="#000000" stroke-linecap="round" stroke-linejoin="bevel" stroke-opacity="1" stroke-width="2.5" transform="matrix(1,0,0,1,1731.21,1086.81)">
    <path d="M0,0 L-21.9251,27.8984 L-11.6918,33.5012 L0,0" fill-rule="evenodd" vector-effect="none"/>
   </g>
  </g>
 </g>
</svg>
