<?xml version='1.0' encoding='UTF-8' standalone='no'?>
<svg width="297mm" xmlns="http://www.w3.org/2000/svg" xmlns:sodipodi="http://sodipodi.sourceforge.net/DTD/sodipodi-0.dtd" baseProfile="tiny" version="1.2" xmlns:inkscape="http://www.inkscape.org/namespaces/inkscape" xmlns:xlink="http://www.w3.org/1999/xlink" height="210mm" xmlns:rdf="http://www.w3.org/1999/02/22-rdf-syntax-ns#" xmlns:cc="http://creativecommons.org/ns#" xmlns:svg="http://www.w3.org/2000/svg" viewBox="0 0 2970 2100" xmlns:freecad="https://www.freecad.org/wiki/index.php?title=Svg_Namespace" xmlns:dc="http://purl.org/dc/elements/1.1/">
 <title>FreeCAD SVG Export</title>
 <desc>Drawing page: Page001 exported from FreeCAD document: __1_Kotiranje_teles_osnove</desc>
 <defs/>
 <g inkscape:groupmode="layer" inkscape:label="TechDraw" id="Page001">
  <g style="stroke: none;" transform="scale(10.000000, 10.000000)" id="Default_Template_A4_Landscape.svg">
   <metadata id="metadata8">
    <rdf:RDF>
     <cc:Work rdf:about="">
      <dc:format>image/svg+xml</dc:format>
      <dc:type rdf:resource="http://purl.org/dc/dcmitype/StillImage"/>
     </cc:Work>
    </rdf:RDF>
   </metadata>
  </g>
  <g stroke-linejoin="bevel" stroke="black" stroke-linecap="square" fill-rule="evenodd" stroke-width="1" id="DrawingContent" fill="none">
   <g stroke-linejoin="bevel" stroke="#000000" stroke-linecap="square" font-weight="400" stroke-opacity="1" transform="matrix(1,0,0,1,581.613,1077.93)" stroke-width="1" font-size="31.75" font-style="normal" font-family="Sans Serif" fill="none">
    <rect width="0" x="0" height="0" y="0"/>
   </g>
   <g stroke="none" font-weight="400" fill-opacity="0" transform="matrix(1,0,0,1,581.613,1077.93)" font-size="31.75" font-style="normal" font-family="Sans Serif" fill="#a0a0a0">
    <path fill-rule="evenodd" vector-effect="non-scaling-stroke" d="M250,100 L-250,100 L-250,-100 L250,-100 L250,100"/>
   </g>
   <g stroke-linejoin="bevel" stroke="#212529" stroke-linecap="round" font-weight="400" stroke-opacity="1" transform="matrix(1,0,0,1,581.613,1077.93)" stroke-width="5" font-size="31.75" font-style="normal" font-family="Sans Serif" fill="none">
    <path fill-rule="evenodd" vector-effect="none" d="M250,100 L-250,100"/>
   </g>
   <g stroke-linejoin="bevel" stroke="#212529" stroke-linecap="round" font-weight="400" stroke-opacity="1" transform="matrix(1,0,0,1,581.613,1077.93)" stroke-width="5" font-size="31.75" font-style="normal" font-family="Sans Serif" fill="none">
    <path fill-rule="evenodd" vector-effect="none" d="M250,-100 L-250,-100"/>
   </g>
   <g stroke-linejoin="bevel" stroke="#212529" stroke-linecap="round" font-weight="400" stroke-opacity="1" transform="matrix(1,0,0,1,581.613,1077.93)" stroke-width="5" font-size="31.75" font-style="normal" font-family="Sans Serif" fill="none">
    <path fill-rule="evenodd" vector-effect="none" d="M250,100 L250,-100"/>
   </g>
   <g stroke-linejoin="bevel" stroke="#212529" stroke-linecap="round" font-weight="400" stroke-opacity="1" transform="matrix(1,0,0,1,581.613,1077.93)" stroke-width="5" font-size="31.75" font-style="normal" font-family="Sans Serif" fill="none">
    <path fill-rule="evenodd" vector-effect="none" d="M-250,100 L-250,-100"/>
   </g>
   <g stroke-dasharray="30,7.5" stroke-linejoin="bevel" stroke="#212529" stroke-linecap="round" font-weight="400" stroke-dashoffset="7.5" stroke-opacity="1" transform="matrix(1,0,0,1,581.613,1077.93)" stroke-width="2.5" font-size="31.75" font-style="normal" font-family="Sans Serif" fill="none">
    <path fill-rule="evenodd" vector-effect="none" d="M250,-100 L-250,-100"/>
   </g>
   <g stroke-dasharray="30,7.5" stroke-linejoin="bevel" stroke="#212529" stroke-linecap="round" font-weight="400" stroke-dashoffset="7.5" stroke-opacity="1" transform="matrix(1,0,0,1,581.613,1077.93)" stroke-width="2.5" font-size="31.75" font-style="normal" font-family="Sans Serif" fill="none">
    <path fill-rule="evenodd" vector-effect="none" d="M250,100 L-250,100"/>
   </g>
   <g stroke-dasharray="30,7.5" stroke-linejoin="bevel" stroke="#212529" stroke-linecap="round" font-weight="400" stroke-dashoffset="7.5" stroke-opacity="1" transform="matrix(1,0,0,1,581.613,1077.93)" stroke-width="2.5" font-size="31.75" font-style="normal" font-family="Sans Serif" fill="none">
    <path fill-rule="evenodd" vector-effect="none" d="M250,-100 L250,100"/>
   </g>
   <g stroke-dasharray="30,7.5" stroke-linejoin="bevel" stroke="#212529" stroke-linecap="round" font-weight="400" stroke-dashoffset="7.5" stroke-opacity="1" transform="matrix(1,0,0,1,581.613,1077.93)" stroke-width="2.5" font-size="31.75" font-style="normal" font-family="Sans Serif" fill="none">
    <path fill-rule="evenodd" vector-effect="none" d="M-250,-100 L-250,100"/>
   </g>
   <g stroke-linejoin="bevel" stroke="#212529" stroke-linecap="square" font-weight="400" stroke-opacity="1" transform="matrix(1,0,0,1,548.433,1219.04)" stroke-width="1" font-size="31.75" font-style="normal" font-family="Sans Serif" fill="none">
    <text stroke="none" xml:space="preserve" x="4" font-weight="400" fill-opacity="1" y="39" font-size="53" font-style="normal" font-family="ISOCPEUR" fill="#212529">50</text>
   </g>
   <g stroke-linejoin="bevel" stroke="#212529" stroke-linecap="round" font-weight="400" stroke-opacity="1" transform="matrix(1,0,0,1,581.613,1077.93)" stroke-width="2.5" font-size="31.75" font-style="normal" font-family="Sans Serif" fill="none">
    <path fill-rule="evenodd" vector-effect="none" d="M250,200.106 L-250,200.106 M-250,100 L-250,220.106 M250,100 L250,220.106"/>
   </g>
   <g stroke-linejoin="bevel" stroke="#212529" stroke-linecap="round" font-weight="400" fill-opacity="1" stroke-opacity="1" transform="matrix(1,0,0,1,331.613,1278.04)" stroke-width="2.5" font-size="31.75" font-style="normal" font-family="Sans Serif" fill="#212529">
    <path fill-rule="evenodd" vector-effect="none" d="M0,0 L35,5.83333 L35,-5.83333 L0,0"/>
   </g>
   <g stroke-linejoin="bevel" stroke="#212529" stroke-linecap="round" font-weight="400" fill-opacity="1" stroke-opacity="1" transform="matrix(1,0,0,1,831.613,1278.04)" stroke-width="2.5" font-size="31.75" font-style="normal" font-family="Sans Serif" fill="#212529">
    <path fill-rule="evenodd" vector-effect="none" d="M0,0 L-35,-5.83333 L-35,5.83333 L0,0"/>
   </g>
   <g stroke="none" font-weight="400" fill-opacity="0" transform="matrix(1,0,0,1,1081.61,1077.93)" font-size="31.75" font-style="normal" font-family="Sans Serif" fill="#a0a0a0">
    <path fill-rule="evenodd" vector-effect="non-scaling-stroke" d="M100,100 L100,-100 L-100,-100 L-100,100 L100,100"/>
   </g>
   <g stroke-linejoin="bevel" stroke="#212529" stroke-linecap="round" font-weight="400" stroke-opacity="1" transform="matrix(1,0,0,1,1081.61,1077.93)" stroke-width="5" font-size="31.75" font-style="normal" font-family="Sans Serif" fill="none">
    <path fill-rule="evenodd" vector-effect="none" d="M100,100 L100,-100"/>
   </g>
   <g stroke-linejoin="bevel" stroke="#212529" stroke-linecap="round" font-weight="400" stroke-opacity="1" transform="matrix(1,0,0,1,1081.61,1077.93)" stroke-width="5" font-size="31.75" font-style="normal" font-family="Sans Serif" fill="none">
    <path fill-rule="evenodd" vector-effect="none" d="M100,-100 L-100,-100"/>
   </g>
   <g stroke-linejoin="bevel" stroke="#212529" stroke-linecap="round" font-weight="400" stroke-opacity="1" transform="matrix(1,0,0,1,1081.61,1077.93)" stroke-width="5" font-size="31.75" font-style="normal" font-family="Sans Serif" fill="none">
    <path fill-rule="evenodd" vector-effect="none" d="M-100,-100 L-100,100"/>
   </g>
   <g stroke-linejoin="bevel" stroke="#212529" stroke-linecap="round" font-weight="400" stroke-opacity="1" transform="matrix(1,0,0,1,1081.61,1077.93)" stroke-width="5" font-size="31.75" font-style="normal" font-family="Sans Serif" fill="none">
    <path fill-rule="evenodd" vector-effect="none" d="M-100,100 L100,100"/>
   </g>
   <g stroke-dasharray="30,7.5" stroke-linejoin="bevel" stroke="#212529" stroke-linecap="round" font-weight="400" stroke-dashoffset="7.5" stroke-opacity="1" transform="matrix(1,0,0,1,1081.61,1077.93)" stroke-width="2.5" font-size="31.75" font-style="normal" font-family="Sans Serif" fill="none">
    <path fill-rule="evenodd" vector-effect="none" d="M100,100 L100,-100"/>
   </g>
   <g stroke-dasharray="30,7.5" stroke-linejoin="bevel" stroke="#212529" stroke-linecap="round" font-weight="400" stroke-dashoffset="7.5" stroke-opacity="1" transform="matrix(1,0,0,1,1081.61,1077.93)" stroke-width="2.5" font-size="31.75" font-style="normal" font-family="Sans Serif" fill="none">
    <path fill-rule="evenodd" vector-effect="none" d="M100,-100 L-100,-100"/>
   </g>
   <g stroke-dasharray="30,7.5" stroke-linejoin="bevel" stroke="#212529" stroke-linecap="round" font-weight="400" stroke-dashoffset="7.5" stroke-opacity="1" transform="matrix(1,0,0,1,1081.61,1077.93)" stroke-width="2.5" font-size="31.75" font-style="normal" font-family="Sans Serif" fill="none">
    <path fill-rule="evenodd" vector-effect="none" d="M-100,-100 L-100,100"/>
   </g>
   <g stroke-dasharray="30,7.5" stroke-linejoin="bevel" stroke="#212529" stroke-linecap="round" font-weight="400" stroke-dashoffset="7.5" stroke-opacity="1" transform="matrix(1,0,0,1,1081.61,1077.93)" stroke-width="2.5" font-size="31.75" font-style="normal" font-family="Sans Serif" fill="none">
    <path fill-rule="evenodd" vector-effect="none" d="M-100,100 L100,100"/>
   </g>
   <g stroke-linejoin="bevel" stroke="#212529" stroke-linecap="square" font-weight="400" stroke-opacity="1" transform="matrix(1,0,0,1,1048.43,1219.84)" stroke-width="1" font-size="31.75" font-style="normal" font-family="Sans Serif" fill="none">
    <text stroke="none" xml:space="preserve" x="4" font-weight="400" fill-opacity="1" y="39" font-size="53" font-style="normal" font-family="ISOCPEUR" fill="#212529">20</text>
   </g>
   <g stroke-linejoin="bevel" stroke="#212529" stroke-linecap="round" font-weight="400" stroke-opacity="1" transform="matrix(1,0,0,1,1081.61,1077.93)" stroke-width="2.5" font-size="31.75" font-style="normal" font-family="Sans Serif" fill="none">
    <path fill-rule="evenodd" vector-effect="none" d="M-100,200.906 L100,200.906 M100,100 L100,220.906 M-100,100 L-100,220.906"/>
   </g>
   <g stroke-linejoin="bevel" stroke="#212529" stroke-linecap="round" font-weight="400" fill-opacity="1" stroke-opacity="1" transform="matrix(1,0,0,1,1181.61,1278.84)" stroke-width="2.5" font-size="31.75" font-style="normal" font-family="Sans Serif" fill="#212529">
    <path fill-rule="evenodd" vector-effect="none" d="M0,0 L-35,-5.83333 L-35,5.83333 L0,0"/>
   </g>
   <g stroke-linejoin="bevel" stroke="#212529" stroke-linecap="round" font-weight="400" fill-opacity="1" stroke-opacity="1" transform="matrix(1,0,0,1,981.613,1278.84)" stroke-width="2.5" font-size="31.75" font-style="normal" font-family="Sans Serif" fill="#212529">
    <path fill-rule="evenodd" vector-effect="none" d="M0,0 L35,5.83333 L35,-5.83333 L0,0"/>
   </g>
   <g stroke-linejoin="bevel" stroke="#212529" stroke-linecap="square" font-weight="400" stroke-opacity="1" transform="matrix(0,-1,1,0,1223.22,1111.11)" stroke-width="1" font-size="31.75" font-style="normal" font-family="Sans Serif" fill="none">
    <text stroke="none" xml:space="preserve" x="4" font-weight="400" fill-opacity="1" y="39" font-size="53" font-style="normal" font-family="ISOCPEUR" fill="#212529">20</text>
   </g>
   <g stroke-linejoin="bevel" stroke="#212529" stroke-linecap="round" font-weight="400" stroke-opacity="1" transform="matrix(1,0,0,1,1081.61,1077.93)" stroke-width="2.5" font-size="31.75" font-style="normal" font-family="Sans Serif" fill="none">
    <path fill-rule="evenodd" vector-effect="none" d="M200.606,100 L200.606,-100 M100,-100 L220.606,-100 M100,100 L220.606,100"/>
   </g>
   <g stroke-linejoin="bevel" stroke="#212529" stroke-linecap="round" font-weight="400" fill-opacity="1" stroke-opacity="1" transform="matrix(1,0,0,1,1282.22,977.931)" stroke-width="2.5" font-size="31.75" font-style="normal" font-family="Sans Serif" fill="#212529">
    <path fill-rule="evenodd" vector-effect="none" d="M0,0 L-5.83333,35 L5.83333,35 L0,0"/>
   </g>
   <g stroke-linejoin="bevel" stroke="#212529" stroke-linecap="round" font-weight="400" fill-opacity="1" stroke-opacity="1" transform="matrix(1,0,0,1,1282.22,1177.93)" stroke-width="2.5" font-size="31.75" font-style="normal" font-family="Sans Serif" fill="#212529">
    <path fill-rule="evenodd" vector-effect="none" d="M0,0 L5.83333,-35 L-5.83333,-35 L0,0"/>
   </g>
   <g stroke="none" font-weight="400" fill-opacity="0" transform="matrix(1,0,0,1,1778.32,1077.93)" font-size="31.75" font-style="normal" font-family="Sans Serif" fill="#a0a0a0">
    <path fill-rule="evenodd" vector-effect="non-scaling-stroke" d="M250,100 L-250,100 L-250,-100 L250,-100 L250,100"/>
   </g>
   <g stroke="none" font-weight="400" fill-opacity="0" transform="matrix(1,0,0,1,1778.32,1077.93)" font-size="31.75" font-style="normal" font-family="Sans Serif" fill="#a0a0a0">
    <path fill-rule="evenodd" vector-effect="non-scaling-stroke" d="M250,100 L-250,100 L-7.10543e-14,0 L250,100"/>
   </g>
   <g stroke="none" font-weight="400" fill-opacity="0" transform="matrix(1,0,0,1,1778.32,1077.93)" font-size="31.75" font-style="normal" font-family="Sans Serif" fill="#a0a0a0">
    <path fill-rule="evenodd" vector-effect="non-scaling-stroke" d="M250,-100 L-250,-100 L-7.10543e-14,0 L250,-100"/>
   </g>
   <g stroke="none" font-weight="400" fill-opacity="0" transform="matrix(1,0,0,1,1778.32,1077.93)" font-size="31.75" font-style="normal" font-family="Sans Serif" fill="#a0a0a0">
    <path fill-rule="evenodd" vector-effect="non-scaling-stroke" d="M250,100 L250,-100 L-7.10543e-14,0 L250,100"/>
   </g>
   <g stroke="none" font-weight="400" fill-opacity="0" transform="matrix(1,0,0,1,1778.32,1077.93)" font-size="31.75" font-style="normal" font-family="Sans Serif" fill="#a0a0a0">
    <path fill-rule="evenodd" vector-effect="non-scaling-stroke" d="M-7.10543e-14,0 L-250,100 L-250,-100 L-7.10543e-14,0"/>
   </g>
   <g stroke-linejoin="bevel" stroke="#212529" stroke-linecap="round" font-weight="400" stroke-opacity="1" transform="matrix(1,0,0,1,1778.32,1077.93)" stroke-width="5" font-size="31.75" font-style="normal" font-family="Sans Serif" fill="none">
    <path fill-rule="evenodd" vector-effect="none" d="M250,100 L-250,100"/>
   </g>
   <g stroke-linejoin="bevel" stroke="#212529" stroke-linecap="round" font-weight="400" stroke-opacity="1" transform="matrix(1,0,0,1,1778.32,1077.93)" stroke-width="5" font-size="31.75" font-style="normal" font-family="Sans Serif" fill="none">
    <path fill-rule="evenodd" vector-effect="none" d="M250,-100 L-250,-100"/>
   </g>
   <g stroke-linejoin="bevel" stroke="#212529" stroke-linecap="round" font-weight="400" stroke-opacity="1" transform="matrix(1,0,0,1,1778.32,1077.93)" stroke-width="5" font-size="31.75" font-style="normal" font-family="Sans Serif" fill="none">
    <path fill-rule="evenodd" vector-effect="none" d="M250,100 L250,-100"/>
   </g>
   <g stroke-linejoin="bevel" stroke="#212529" stroke-linecap="round" font-weight="400" stroke-opacity="1" transform="matrix(1,0,0,1,1778.32,1077.93)" stroke-width="5" font-size="31.75" font-style="normal" font-family="Sans Serif" fill="none">
    <path fill-rule="evenodd" vector-effect="none" d="M-250,100 L-250,-100"/>
   </g>
   <g stroke-dasharray="30,7.5" stroke-linejoin="bevel" stroke="#212529" stroke-linecap="round" font-weight="400" stroke-dashoffset="7.5" stroke-opacity="1" transform="matrix(1,0,0,1,1778.32,1077.93)" stroke-width="2.5" font-size="31.75" font-style="normal" font-family="Sans Serif" fill="none">
    <path fill-rule="evenodd" vector-effect="none" d="M250,-100 L-250,-100"/>
   </g>
   <g stroke-dasharray="30,7.5" stroke-linejoin="bevel" stroke="#212529" stroke-linecap="round" font-weight="400" stroke-dashoffset="7.5" stroke-opacity="1" transform="matrix(1,0,0,1,1778.32,1077.93)" stroke-width="2.5" font-size="31.75" font-style="normal" font-family="Sans Serif" fill="none">
    <path fill-rule="evenodd" vector-effect="none" d="M250,100 L-250,100"/>
   </g>
   <g stroke-dasharray="30,7.5" stroke-linejoin="bevel" stroke="#212529" stroke-linecap="round" font-weight="400" stroke-dashoffset="7.5" stroke-opacity="1" transform="matrix(1,0,0,1,1778.32,1077.93)" stroke-width="2.5" font-size="31.75" font-style="normal" font-family="Sans Serif" fill="none">
    <path fill-rule="evenodd" vector-effect="none" d="M250,-100 L250,100"/>
   </g>
   <g stroke-dasharray="30,7.5" stroke-linejoin="bevel" stroke="#212529" stroke-linecap="round" font-weight="400" stroke-dashoffset="7.5" stroke-opacity="1" transform="matrix(1,0,0,1,1778.32,1077.93)" stroke-width="2.5" font-size="31.75" font-style="normal" font-family="Sans Serif" fill="none">
    <path fill-rule="evenodd" vector-effect="none" d="M-250,-100 L-250,100"/>
   </g>
   <g stroke-linejoin="bevel" stroke="#212529" stroke-linecap="round" font-weight="400" stroke-opacity="1" transform="matrix(1,0,0,1,1778.32,1077.93)" stroke-width="2.5" font-size="31.75" font-style="normal" font-family="Sans Serif" fill="none">
    <path fill-rule="evenodd" vector-effect="none" d="M250,100 L-250,-100"/>
   </g>
   <g stroke-linejoin="bevel" stroke="#212529" stroke-linecap="round" font-weight="400" stroke-opacity="1" transform="matrix(1,0,0,1,1778.32,1077.93)" stroke-width="2.5" font-size="31.75" font-style="normal" font-family="Sans Serif" fill="none">
    <path fill-rule="evenodd" vector-effect="none" d="M250,-100 L-250,100"/>
   </g>
   <g stroke-linejoin="bevel" stroke="#212529" stroke-linecap="square" font-weight="400" stroke-opacity="1" transform="matrix(1,0,0,1,1745.14,1219.24)" stroke-width="1" font-size="31.75" font-style="normal" font-family="Sans Serif" fill="none">
    <text stroke="none" xml:space="preserve" x="4" font-weight="400" fill-opacity="1" y="39" font-size="53" font-style="normal" font-family="ISOCPEUR" fill="#212529">50</text>
   </g>
   <g stroke-linejoin="bevel" stroke="#212529" stroke-linecap="round" font-weight="400" stroke-opacity="1" transform="matrix(1,0,0,1,1778.32,1077.93)" stroke-width="2.5" font-size="31.75" font-style="normal" font-family="Sans Serif" fill="none">
    <path fill-rule="evenodd" vector-effect="none" d="M250,200.306 L-250,200.306 M-250,100 L-250,220.306 M250,100 L250,220.306"/>
   </g>
   <g stroke-linejoin="bevel" stroke="#212529" stroke-linecap="round" font-weight="400" fill-opacity="1" stroke-opacity="1" transform="matrix(1,0,0,1,1528.32,1278.24)" stroke-width="2.5" font-size="31.75" font-style="normal" font-family="Sans Serif" fill="#212529">
    <path fill-rule="evenodd" vector-effect="none" d="M0,0 L35,5.83333 L35,-5.83333 L0,0"/>
   </g>
   <g stroke-linejoin="bevel" stroke="#212529" stroke-linecap="round" font-weight="400" fill-opacity="1" stroke-opacity="1" transform="matrix(1,0,0,1,2028.32,1278.24)" stroke-width="2.5" font-size="31.75" font-style="normal" font-family="Sans Serif" fill="#212529">
    <path fill-rule="evenodd" vector-effect="none" d="M0,0 L-35,-5.83333 L-35,5.83333 L0,0"/>
   </g>
   <g stroke-linejoin="bevel" stroke="#212529" stroke-linecap="square" font-weight="400" stroke-opacity="1" transform="matrix(0,-1,1,0,2069.13,1126.51)" stroke-width="1" font-size="31.75" font-style="normal" font-family="Sans Serif" fill="none">
    <text stroke="none" xml:space="preserve" x="4" font-weight="400" fill-opacity="1" y="39" font-size="53" font-style="normal" font-family="ISOCPEUR" fill="#212529">□20</text>
   </g>
   <g stroke-linejoin="bevel" stroke="#212529" stroke-linecap="round" font-weight="400" stroke-opacity="1" transform="matrix(1,0,0,1,1778.32,1077.93)" stroke-width="2.5" font-size="31.75" font-style="normal" font-family="Sans Serif" fill="none">
    <path fill-rule="evenodd" vector-effect="none" d="M349.806,-100 L349.806,100 M250,100 L369.806,100 M250,-100 L369.806,-100"/>
   </g>
   <g stroke-linejoin="bevel" stroke="#212529" stroke-linecap="round" font-weight="400" fill-opacity="1" stroke-opacity="1" transform="matrix(1,0,0,1,2128.13,1177.93)" stroke-width="2.5" font-size="31.75" font-style="normal" font-family="Sans Serif" fill="#212529">
    <path fill-rule="evenodd" vector-effect="none" d="M0,0 L5.83333,-35 L-5.83333,-35 L0,0"/>
   </g>
   <g stroke-linejoin="bevel" stroke="#212529" stroke-linecap="round" font-weight="400" fill-opacity="1" stroke-opacity="1" transform="matrix(1,0,0,1,2128.13,977.931)" stroke-width="2.5" font-size="31.75" font-style="normal" font-family="Sans Serif" fill="#212529">
    <path fill-rule="evenodd" vector-effect="none" d="M0,0 L-5.83333,35 L5.83333,35 L0,0"/>
   </g>
   <g stroke-linejoin="bevel" stroke="#000000" stroke-linecap="square" font-weight="400" stroke-opacity="1" transform="matrix(1,0,0,1,1778.32,1077.93)" stroke-width="1" font-size="31.75" font-style="normal" font-family="Sans Serif" fill="none">
    <rect width="0" x="0" height="0" y="0"/>
   </g>
   <g stroke-linejoin="bevel" stroke="#000000" stroke-linecap="round" font-weight="400" stroke-opacity="1" transform="matrix(1,0,0,1,1778.32,1077.93)" stroke-width="2.5" font-size="31.75" font-style="normal" font-family="Sans Serif" fill="none">
    <path fill-rule="evenodd" vector-effect="none" d=""/>
   </g>
   <g stroke-linejoin="bevel" stroke="#000000" stroke-linecap="square" font-weight="400" stroke-opacity="1" transform="matrix(1,0,0,1,2036.16,1017.01)" stroke-width="1" font-size="31.75" font-style="normal" font-family="Sans Serif" fill="none">
    <rect width="0" x="0" height="0" y="0"/>
   </g>
   <g stroke-linejoin="bevel" stroke="#000000" stroke-linecap="round" font-weight="400" stroke-opacity="1" transform="matrix(1,0,0,1,2036.16,1017.01)" stroke-width="2.55" font-size="31.75" font-style="normal" font-family="Sans Serif" fill="none">
    <path fill-rule="evenodd" vector-effect="none" d="M0,0 L74.5929,-74.5929 L737.105,-74.5929"/>
   </g>
   <g stroke-linejoin="bevel" stroke="#212529" stroke-linecap="square" font-weight="400" stroke-opacity="1" transform="matrix(1,0,0,1,2206.88,757.362)" stroke-width="1" font-size="31.75" font-style="normal" font-family="Sans Serif" fill="none">
    <text stroke="none" xml:space="preserve" x="4" font-weight="400" fill-opacity="1" y="53" font-size="75" font-style="normal" font-family="ISOCPEUR" fill="#212529">kvadratna ploskev</text>
   </g>
   <g stroke-linejoin="bevel" stroke="#212529" stroke-linecap="square" font-weight="400" stroke-opacity="1" transform="matrix(1,0,0,1,2206.88,757.362)" stroke-width="1" font-size="31.75" font-style="normal" font-family="Sans Serif" fill="none">
    <text stroke="none" xml:space="preserve" x="4" font-weight="400" fill-opacity="1" y="116" font-size="75" font-style="normal" font-family="ISOCPEUR" fill="#212529">je predstavljena</text>
   </g>
   <g stroke-linejoin="bevel" stroke="#212529" stroke-linecap="square" font-weight="400" stroke-opacity="1" transform="matrix(1,0,0,1,2206.88,757.362)" stroke-width="1" font-size="31.75" font-style="normal" font-family="Sans Serif" fill="none">
    <text stroke="none" xml:space="preserve" x="4" font-weight="400" fill-opacity="1" y="179" font-size="75" font-style="normal" font-family="ISOCPEUR" fill="#212529">kot rob</text>
   </g>
   <g stroke-linejoin="bevel" stroke="#000000" stroke-linecap="square" font-weight="400" stroke-opacity="1" transform="matrix(1,0,0,1,2206.88,757.362)" stroke-width="1" font-size="31.75" font-style="normal" font-family="Sans Serif" fill="none">
    <text stroke="none" xml:space="preserve" x="226.313" font-weight="400" fill-opacity="1" y="179" font-size="31.75" font-style="normal" font-family="Sans Serif" fill="#000000"/>
   </g>
  </g>
 </g>
</svg>
