<?xml version='1.0' encoding='UTF-8' standalone='no'?>
<svg xmlns:xlink="http://www.w3.org/1999/xlink" xmlns:sodipodi="http://sodipodi.sourceforge.net/DTD/sodipodi-0.dtd" version="1.2" baseProfile="tiny" xmlns:svg="http://www.w3.org/2000/svg" xmlns:dc="http://purl.org/dc/elements/1.1/" xmlns:rdf="http://www.w3.org/1999/02/22-rdf-syntax-ns#" height="210mm" viewBox="0 0 2970 2100" xmlns:cc="http://creativecommons.org/ns#" xmlns:inkscape="http://www.inkscape.org/namespaces/inkscape" xmlns="http://www.w3.org/2000/svg" width="297mm" xmlns:freecad="https://www.freecad.org/wiki/index.php?title=Svg_Namespace">
 <title>FreeCAD SVG Export</title>
 <desc>Drawing page: Page exported from FreeCAD document: izo_vs_dimetircna</desc>
 <defs/>
 <g inkscape:groupmode="layer" id="Page" inkscape:label="TechDraw">
  <g transform="scale(10.000000, 10.000000)" id="Default_Template_A4_Landscape5.svg" style="stroke: none;">
   <metadata id="metadata8">
    <rdf:RDF>
     <cc:Work rdf:about="">
      <dc:format>image/svg+xml</dc:format>
      <dc:type rdf:resource="http://purl.org/dc/dcmitype/StillImage"/>
     </cc:Work>
    </rdf:RDF>
   </metadata>
  </g>
  <g stroke="black" stroke-linecap="square" fill-rule="evenodd" stroke-linejoin="bevel" stroke-width="1" id="DrawingContent" fill="none">
   <g stroke="none" font-family="Sans Serif" font-weight="400" font-style="normal" transform="matrix(1,0,0,1,834.694,759.547)" fill-opacity="0" fill="#f1f3f5" font-size="31.75">
    <path fill-rule="evenodd" vector-effect="non-scaling-stroke" d="M-353.553,203.579 L-353.553,-204.061 L0.416553,-408.551 L353.553,-203.579 L353.553,204.061 L-0.416553,408.551 L-353.553,203.579"/>
   </g>
   <g stroke="none" font-family="Sans Serif" font-weight="400" font-style="normal" transform="matrix(1,0,0,1,834.694,759.547)" fill-opacity="0" fill="#f1f3f5" font-size="31.75">
    <path fill-rule="evenodd" vector-effect="non-scaling-stroke" d="M0.416553,-408.551 L-353.553,-204.061 L-0.416421,0.91047 L353.553,-203.579 L0.416553,-408.551"/>
   </g>
   <g stroke="none" font-family="Sans Serif" font-weight="400" font-style="normal" transform="matrix(1,0,0,1,834.694,759.547)" fill-opacity="0" fill="#f1f3f5" font-size="31.75">
    <path fill-rule="evenodd" vector-effect="non-scaling-stroke" d="M-0.416553,408.551 L-0.416421,0.91047 L353.553,-203.579 L353.553,204.061 L-0.416553,408.551"/>
   </g>
   <g stroke="none" font-family="Sans Serif" font-weight="400" font-style="normal" transform="matrix(1,0,0,1,834.694,759.547)" fill-opacity="0" fill="#f1f3f5" font-size="31.75">
    <path fill-rule="evenodd" vector-effect="non-scaling-stroke" d="M-353.553,203.579 L-353.553,-204.061 L-0.416421,0.91047 L-0.416553,408.551 L-353.553,203.579"/>
   </g>
   <g stroke="#212529" stroke-opacity="1" stroke-linecap="round" font-family="Sans Serif" font-weight="400" font-style="normal" transform="matrix(1,0,0,1,834.694,759.547)" stroke-linejoin="bevel" stroke-width="5" fill="none" font-size="31.75">
    <path fill-rule="evenodd" vector-effect="none" d="M-353.553,203.579 L-353.553,-204.061"/>
   </g>
   <g stroke="#212529" stroke-opacity="1" stroke-linecap="round" font-family="Sans Serif" font-weight="400" font-style="normal" transform="matrix(1,0,0,1,834.694,759.547)" stroke-linejoin="bevel" stroke-width="5" fill="none" font-size="31.75">
    <path fill-rule="evenodd" vector-effect="none" d="M0.416553,-408.551 L-353.553,-204.061"/>
   </g>
   <g stroke="#212529" stroke-opacity="1" stroke-linecap="round" font-family="Sans Serif" font-weight="400" font-style="normal" transform="matrix(1,0,0,1,834.694,759.547)" stroke-linejoin="bevel" stroke-width="5" fill="none" font-size="31.75">
    <path fill-rule="evenodd" vector-effect="none" d="M-0.416553,408.551 L-0.416421,0.91047"/>
   </g>
   <g stroke="#212529" stroke-opacity="1" stroke-linecap="round" font-family="Sans Serif" font-weight="400" font-style="normal" transform="matrix(1,0,0,1,834.694,759.547)" stroke-linejoin="bevel" stroke-width="5" fill="none" font-size="31.75">
    <path fill-rule="evenodd" vector-effect="none" d="M-353.553,203.579 L-0.416553,408.551"/>
   </g>
   <g stroke="#212529" stroke-opacity="1" stroke-linecap="round" font-family="Sans Serif" font-weight="400" font-style="normal" transform="matrix(1,0,0,1,834.694,759.547)" stroke-linejoin="bevel" stroke-width="5" fill="none" font-size="31.75">
    <path fill-rule="evenodd" vector-effect="none" d="M-353.553,-204.061 L-0.416421,0.91047"/>
   </g>
   <g stroke="#212529" stroke-opacity="1" stroke-linecap="round" font-family="Sans Serif" font-weight="400" font-style="normal" transform="matrix(1,0,0,1,834.694,759.547)" stroke-linejoin="bevel" stroke-width="5" fill="none" font-size="31.75">
    <path fill-rule="evenodd" vector-effect="none" d="M353.553,204.061 L353.553,-203.579"/>
   </g>
   <g stroke="#212529" stroke-opacity="1" stroke-linecap="round" font-family="Sans Serif" font-weight="400" font-style="normal" transform="matrix(1,0,0,1,834.694,759.547)" stroke-linejoin="bevel" stroke-width="5" fill="none" font-size="31.75">
    <path fill-rule="evenodd" vector-effect="none" d="M-0.416553,408.551 L353.553,204.061"/>
   </g>
   <g stroke="#212529" stroke-opacity="1" stroke-linecap="round" font-family="Sans Serif" font-weight="400" font-style="normal" transform="matrix(1,0,0,1,834.694,759.547)" stroke-linejoin="bevel" stroke-width="5" fill="none" font-size="31.75">
    <path fill-rule="evenodd" vector-effect="none" d="M-0.416421,0.91047 L353.553,-203.579"/>
   </g>
   <g stroke="#212529" stroke-opacity="1" stroke-linecap="round" font-family="Sans Serif" font-weight="400" font-style="normal" transform="matrix(1,0,0,1,834.694,759.547)" stroke-linejoin="bevel" stroke-width="5" fill="none" font-size="31.75">
    <path fill-rule="evenodd" vector-effect="none" d="M353.553,-203.579 L0.416553,-408.551"/>
   </g>
   <g stroke="#212529" stroke-opacity="1" stroke-linecap="round" font-family="Sans Serif" font-weight="400" font-style="normal" stroke-dasharray="30,7.5" transform="matrix(1,0,0,1,834.694,759.547)" stroke-linejoin="bevel" stroke-dashoffset="7.5" stroke-width="2.5" fill="none" font-size="31.75">
    <path fill-rule="evenodd" vector-effect="none" d="M0.416421,-0.91047 L0.416553,-408.551"/>
   </g>
   <g stroke="#212529" stroke-opacity="1" stroke-linecap="round" font-family="Sans Serif" font-weight="400" font-style="normal" stroke-dasharray="30,7.5" transform="matrix(1,0,0,1,834.694,759.547)" stroke-linejoin="bevel" stroke-dashoffset="7.5" stroke-width="2.5" fill="none" font-size="31.75">
    <path fill-rule="evenodd" vector-effect="none" d="M0.416421,-0.91047 L-353.553,203.579"/>
   </g>
   <g stroke="#212529" stroke-opacity="1" stroke-linecap="round" font-family="Sans Serif" font-weight="400" font-style="normal" stroke-dasharray="30,7.5" transform="matrix(1,0,0,1,834.694,759.547)" stroke-linejoin="bevel" stroke-dashoffset="7.5" stroke-width="2.5" fill="none" font-size="31.75">
    <path fill-rule="evenodd" vector-effect="none" d="M353.553,204.061 L0.416421,-0.91047"/>
   </g>
   <g stroke="#212529" stroke-opacity="1" stroke-linecap="square" font-family="Sans Serif" font-weight="400" font-style="normal" transform="matrix(0.864869,0.501998,-0.501998,0.864869,603.564,1024.67)" stroke-linejoin="bevel" stroke-width="1" fill="none" font-size="31.75">
    <text stroke="none" y="66" font-family="osifont" font-weight="400" font-style="normal" fill-opacity="1" xml:space="preserve" x="4" fill="#212529" font-size="47">100</text>
   </g>
   <g stroke="#212529" stroke-opacity="1" stroke-linecap="round" font-family="Sans Serif" font-weight="400" font-style="normal" transform="matrix(1,0,0,1,834.694,759.547)" stroke-linejoin="bevel" stroke-width="2.5" fill="none" font-size="31.75">
    <path fill-rule="evenodd" vector-effect="none" d="M-71.3245,449.515 L-424.461,244.543 M-353.553,203.579 L-441.779,254.547 M-0.416553,408.551 L-88.6423,459.519"/>
   </g>
   <g stroke="#212529" stroke-opacity="1" stroke-linecap="round" font-family="Sans Serif" font-weight="400" font-style="normal" transform="matrix(1,0,0,1,410.233,1004.09)" stroke-linejoin="bevel" stroke-width="2.5" fill-opacity="1" fill="#212529" font-size="31.75">
    <path fill-rule="evenodd" vector-effect="none" d="M0,0 L27.3421,22.615 L33.1987,12.5249 L0,0"/>
   </g>
   <g stroke="#212529" stroke-opacity="1" stroke-linecap="round" font-family="Sans Serif" font-weight="400" font-style="normal" transform="matrix(1,0,0,1,763.37,1209.06)" stroke-linejoin="bevel" stroke-width="2.5" fill-opacity="1" fill="#212529" font-size="31.75">
    <path fill-rule="evenodd" vector-effect="none" d="M0,0 L-27.3421,-22.615 L-33.1987,-12.5249 L0,0"/>
   </g>
   <g stroke="#212529" stroke-opacity="1" stroke-linecap="square" font-family="Sans Serif" font-weight="400" font-style="normal" transform="matrix(0.865893,-0.500229,0.500229,0.865893,975.038,1071.15)" stroke-linejoin="bevel" stroke-width="1" fill="none" font-size="31.75">
    <text stroke="none" y="66" font-family="osifont" font-weight="400" font-style="normal" fill-opacity="1" xml:space="preserve" x="4" fill="#212529" font-size="47">100</text>
   </g>
   <g stroke="#212529" stroke-opacity="1" stroke-linecap="round" font-family="Sans Serif" font-weight="400" font-style="normal" transform="matrix(1,0,0,1,834.694,759.547)" stroke-linejoin="bevel" stroke-width="2.5" fill="none" font-size="31.75">
    <path fill-rule="evenodd" vector-effect="none" d="M65.1149,446.587 L419.085,242.098 M353.553,204.061 L436.382,252.138 M-0.416553,408.551 L82.4123,456.627"/>
   </g>
   <g stroke="#212529" stroke-opacity="1" stroke-linecap="round" font-family="Sans Serif" font-weight="400" font-style="normal" transform="matrix(1,0,0,1,1253.78,1001.65)" stroke-linejoin="bevel" stroke-width="2.5" fill-opacity="1" fill="#212529" font-size="31.75">
    <path fill-rule="evenodd" vector-effect="none" d="M0,0 L-33.2243,12.457 L-27.3883,22.5591 L0,0"/>
   </g>
   <g stroke="#212529" stroke-opacity="1" stroke-linecap="round" font-family="Sans Serif" font-weight="400" font-style="normal" transform="matrix(1,0,0,1,899.809,1206.13)" stroke-linejoin="bevel" stroke-width="2.5" fill-opacity="1" fill="#212529" font-size="31.75">
    <path fill-rule="evenodd" vector-effect="none" d="M0,0 L33.2243,-12.457 L27.3883,-22.5591 L0,0"/>
   </g>
   <g stroke="#212529" stroke-opacity="1" stroke-linecap="square" font-family="Sans Serif" font-weight="400" font-style="normal" transform="matrix(3.23978e-07,-1,1,3.23978e-07,1174.79,760.389)" stroke-linejoin="bevel" stroke-width="1" fill="none" font-size="31.75">
    <text stroke="none" y="66" font-family="osifont" font-weight="400" font-style="normal" fill-opacity="1" xml:space="preserve" x="4" fill="#212529" font-size="47">100</text>
   </g>
   <g stroke="#212529" stroke-opacity="1" stroke-linecap="round" font-family="Sans Serif" font-weight="400" font-style="normal" transform="matrix(1,0,0,1,834.694,759.547)" stroke-linejoin="bevel" stroke-width="2.5" fill="none" font-size="31.75">
    <path fill-rule="evenodd" vector-effect="none" d="M419.348,166.052 L419.348,-241.589 M353.553,-203.579 L436.666,-251.593 M353.553,204.061 L436.666,156.047"/>
   </g>
   <g stroke="#212529" stroke-opacity="1" stroke-linecap="round" font-family="Sans Serif" font-weight="400" font-style="normal" transform="matrix(1,0,0,1,1254.04,517.958)" stroke-linejoin="bevel" stroke-width="2.5" fill-opacity="1" fill="#212529" font-size="31.75">
    <path fill-rule="evenodd" vector-effect="none" d="M0,0 L-5.83334,35 L5.83332,35 L0,0"/>
   </g>
   <g stroke="#212529" stroke-opacity="1" stroke-linecap="round" font-family="Sans Serif" font-weight="400" font-style="normal" transform="matrix(1,0,0,1,1254.04,925.599)" stroke-linejoin="bevel" stroke-width="2.5" fill-opacity="1" fill="#212529" font-size="31.75">
    <path fill-rule="evenodd" vector-effect="none" d="M0,0 L5.83334,-35 L-5.83332,-35 L0,0"/>
   </g>
   <g stroke="none" font-family="Sans Serif" font-weight="400" font-style="normal" transform="matrix(1,0,0,1,1924.53,759.547)" fill-opacity="0" fill="#f1f3f5" font-size="31.75">
    <path fill-rule="evenodd" vector-effect="non-scaling-stroke" d="M-322.161,284.29 L-322.313,-187.104 L-145.552,-343.086 L322.161,-284.29 L322.313,187.104 L145.552,343.086 L-322.161,284.29"/>
   </g>
   <g stroke="none" font-family="Sans Serif" font-weight="400" font-style="normal" transform="matrix(1,0,0,1,1924.53,759.547)" fill-opacity="0" fill="#f1f3f5" font-size="31.75">
    <path fill-rule="evenodd" vector-effect="non-scaling-stroke" d="M-322.161,284.29 L-322.313,-187.104 L145.4,-128.308 L145.552,343.086 L-322.161,284.29"/>
   </g>
   <g stroke="none" font-family="Sans Serif" font-weight="400" font-style="normal" transform="matrix(1,0,0,1,1924.53,759.547)" fill-opacity="0" fill="#f1f3f5" font-size="31.75">
    <path fill-rule="evenodd" vector-effect="non-scaling-stroke" d="M145.552,343.086 L145.4,-128.308 L322.161,-284.29 L322.313,187.104 L145.552,343.086"/>
   </g>
   <g stroke="none" font-family="Sans Serif" font-weight="400" font-style="normal" transform="matrix(1,0,0,1,1924.53,759.547)" fill-opacity="0" fill="#f1f3f5" font-size="31.75">
    <path fill-rule="evenodd" vector-effect="non-scaling-stroke" d="M-145.552,-343.086 L-322.313,-187.104 L145.4,-128.308 L322.161,-284.29 L-145.552,-343.086"/>
   </g>
   <g stroke="#212529" stroke-opacity="1" stroke-linecap="round" font-family="Sans Serif" font-weight="400" font-style="normal" transform="matrix(1,0,0,1,1924.53,759.547)" stroke-linejoin="bevel" stroke-width="5" fill="none" font-size="31.75">
    <path fill-rule="evenodd" vector-effect="none" d="M-322.161,284.29 L-322.313,-187.104"/>
   </g>
   <g stroke="#212529" stroke-opacity="1" stroke-linecap="round" font-family="Sans Serif" font-weight="400" font-style="normal" transform="matrix(1,0,0,1,1924.53,759.547)" stroke-linejoin="bevel" stroke-width="5" fill="none" font-size="31.75">
    <path fill-rule="evenodd" vector-effect="none" d="M-145.552,-343.086 L-322.313,-187.104"/>
   </g>
   <g stroke="#212529" stroke-opacity="1" stroke-linecap="round" font-family="Sans Serif" font-weight="400" font-style="normal" transform="matrix(1,0,0,1,1924.53,759.547)" stroke-linejoin="bevel" stroke-width="5" fill="none" font-size="31.75">
    <path fill-rule="evenodd" vector-effect="none" d="M145.552,343.086 L145.4,-128.308"/>
   </g>
   <g stroke="#212529" stroke-opacity="1" stroke-linecap="round" font-family="Sans Serif" font-weight="400" font-style="normal" transform="matrix(1,0,0,1,1924.53,759.547)" stroke-linejoin="bevel" stroke-width="5" fill="none" font-size="31.75">
    <path fill-rule="evenodd" vector-effect="none" d="M-322.161,284.29 L145.552,343.086"/>
   </g>
   <g stroke="#212529" stroke-opacity="1" stroke-linecap="round" font-family="Sans Serif" font-weight="400" font-style="normal" transform="matrix(1,0,0,1,1924.53,759.547)" stroke-linejoin="bevel" stroke-width="5" fill="none" font-size="31.75">
    <path fill-rule="evenodd" vector-effect="none" d="M-322.313,-187.104 L145.4,-128.308"/>
   </g>
   <g stroke="#212529" stroke-opacity="1" stroke-linecap="round" font-family="Sans Serif" font-weight="400" font-style="normal" transform="matrix(1,0,0,1,1924.53,759.547)" stroke-linejoin="bevel" stroke-width="5" fill="none" font-size="31.75">
    <path fill-rule="evenodd" vector-effect="none" d="M322.313,187.104 L322.161,-284.29"/>
   </g>
   <g stroke="#212529" stroke-opacity="1" stroke-linecap="round" font-family="Sans Serif" font-weight="400" font-style="normal" transform="matrix(1,0,0,1,1924.53,759.547)" stroke-linejoin="bevel" stroke-width="5" fill="none" font-size="31.75">
    <path fill-rule="evenodd" vector-effect="none" d="M145.552,343.086 L322.313,187.104"/>
   </g>
   <g stroke="#212529" stroke-opacity="1" stroke-linecap="round" font-family="Sans Serif" font-weight="400" font-style="normal" transform="matrix(1,0,0,1,1924.53,759.547)" stroke-linejoin="bevel" stroke-width="5" fill="none" font-size="31.75">
    <path fill-rule="evenodd" vector-effect="none" d="M145.4,-128.308 L322.161,-284.29"/>
   </g>
   <g stroke="#212529" stroke-opacity="1" stroke-linecap="round" font-family="Sans Serif" font-weight="400" font-style="normal" transform="matrix(1,0,0,1,1924.53,759.547)" stroke-linejoin="bevel" stroke-width="5" fill="none" font-size="31.75">
    <path fill-rule="evenodd" vector-effect="none" d="M322.161,-284.29 L-145.552,-343.086"/>
   </g>
   <g stroke="#212529" stroke-opacity="1" stroke-linecap="round" font-family="Sans Serif" font-weight="400" font-style="normal" stroke-dasharray="30,7.5" transform="matrix(1,0,0,1,1924.53,759.547)" stroke-linejoin="bevel" stroke-dashoffset="7.5" stroke-width="2.5" fill="none" font-size="31.75">
    <path fill-rule="evenodd" vector-effect="none" d="M-145.4,128.308 L-145.552,-343.086"/>
   </g>
   <g stroke="#212529" stroke-opacity="1" stroke-linecap="round" font-family="Sans Serif" font-weight="400" font-style="normal" stroke-dasharray="30,7.5" transform="matrix(1,0,0,1,1924.53,759.547)" stroke-linejoin="bevel" stroke-dashoffset="7.5" stroke-width="2.5" fill="none" font-size="31.75">
    <path fill-rule="evenodd" vector-effect="none" d="M-145.4,128.308 L-322.161,284.29"/>
   </g>
   <g stroke="#212529" stroke-opacity="1" stroke-linecap="round" font-family="Sans Serif" font-weight="400" font-style="normal" stroke-dasharray="30,7.5" transform="matrix(1,0,0,1,1924.53,759.547)" stroke-linejoin="bevel" stroke-dashoffset="7.5" stroke-width="2.5" fill="none" font-size="31.75">
    <path fill-rule="evenodd" vector-effect="none" d="M322.313,187.104 L-145.4,128.308"/>
   </g>
   <g stroke="#212529" stroke-opacity="1" stroke-linecap="square" font-family="Sans Serif" font-weight="400" font-style="normal" transform="matrix(0.992191,0.124728,-0.124728,0.992191,1756.18,1049.46)" stroke-linejoin="bevel" stroke-width="1" fill="none" font-size="31.75">
    <text stroke="none" y="66" font-family="osifont" font-weight="400" font-style="normal" fill-opacity="1" xml:space="preserve" x="4" fill="#212529" font-size="47">100</text>
   </g>
   <g stroke="#212529" stroke-opacity="1" stroke-linecap="round" font-family="Sans Serif" font-weight="400" font-style="normal" transform="matrix(1,0,0,1,1924.53,759.547)" stroke-linejoin="bevel" stroke-width="2.5" fill="none" font-size="31.75">
    <path fill-rule="evenodd" vector-effect="none" d="M79.922,401.002 L-387.791,342.205 M-322.161,284.29 L-402.787,355.439 M145.552,343.086 L64.9259,414.235"/>
   </g>
   <g stroke="#212529" stroke-opacity="1" stroke-linecap="round" font-family="Sans Serif" font-weight="400" font-style="normal" transform="matrix(1,0,0,1,1536.74,1101.75)" stroke-linejoin="bevel" stroke-width="2.5" fill-opacity="1" fill="#212529" font-size="31.75">
    <path fill-rule="evenodd" vector-effect="none" d="M0,0 L33.9991,10.1533 L35.4543,-1.42229 L0,0"/>
   </g>
   <g stroke="#212529" stroke-opacity="1" stroke-linecap="round" font-family="Sans Serif" font-weight="400" font-style="normal" transform="matrix(1,0,0,1,2004.46,1160.55)" stroke-linejoin="bevel" stroke-width="2.5" fill-opacity="1" fill="#212529" font-size="31.75">
    <path fill-rule="evenodd" vector-effect="none" d="M0,0 L-33.9991,-10.1533 L-35.4543,1.42229 L0,0"/>
   </g>
   <g stroke="#212529" stroke-opacity="1" stroke-linecap="square" font-family="Sans Serif" font-weight="400" font-style="normal" transform="matrix(0.749803,-0.661662,0.661662,0.749803,2147.31,1011.29)" stroke-linejoin="bevel" stroke-width="1" fill="none" font-size="31.75">
    <text stroke="none" y="66" font-family="osifont" font-weight="400" font-style="normal" fill-opacity="1" xml:space="preserve" x="4" fill="#212529" font-size="47">100</text>
   </g>
   <g stroke="#212529" stroke-opacity="1" stroke-linecap="round" font-family="Sans Serif" font-weight="400" font-style="normal" transform="matrix(1,0,0,1,1924.53,759.547)" stroke-linejoin="bevel" stroke-width="2.5" fill="none" font-size="31.75">
    <path fill-rule="evenodd" vector-effect="none" d="M227.386,353.374 L404.147,197.391 M322.313,187.104 L423.991,199.886 M145.552,343.086 L247.23,355.868"/>
   </g>
   <g stroke="#212529" stroke-opacity="1" stroke-linecap="round" font-family="Sans Serif" font-weight="400" font-style="normal" transform="matrix(1,0,0,1,2328.68,956.939)" stroke-linejoin="bevel" stroke-width="2.5" fill-opacity="1" fill="#212529" font-size="31.75">
    <path fill-rule="evenodd" vector-effect="none" d="M0,0 L-30.1028,18.7843 L-22.3834,27.532 L0,0"/>
   </g>
   <g stroke="#212529" stroke-opacity="1" stroke-linecap="round" font-family="Sans Serif" font-weight="400" font-style="normal" transform="matrix(1,0,0,1,2151.92,1112.92)" stroke-linejoin="bevel" stroke-width="2.5" fill-opacity="1" fill="#212529" font-size="31.75">
    <path fill-rule="evenodd" vector-effect="none" d="M0,0 L30.1028,-18.7843 L22.3834,-27.532 L0,0"/>
   </g>
   <g stroke="#212529" stroke-opacity="1" stroke-linecap="square" font-family="Sans Serif" font-weight="400" font-style="normal" transform="matrix(0,-1,1,0,2227.71,698.677)" stroke-linejoin="bevel" stroke-width="1" fill="none" font-size="31.75">
    <text stroke="none" y="66" font-family="osifont" font-weight="400" font-style="normal" fill-opacity="1" xml:space="preserve" x="4" fill="#212529" font-size="47">100</text>
   </g>
   <g stroke="#212529" stroke-opacity="1" stroke-linecap="round" font-family="Sans Serif" font-weight="400" font-style="normal" transform="matrix(1,0,0,1,1924.53,759.547)" stroke-linejoin="bevel" stroke-width="2.5" fill="none" font-size="31.75">
    <path fill-rule="evenodd" vector-effect="none" d="M382.424,134.06 L382.424,-337.469 M322.161,-284.29 L397.42,-350.702 M322.313,187.104 L397.42,120.827"/>
   </g>
   <g stroke="#212529" stroke-opacity="1" stroke-linecap="round" font-family="Sans Serif" font-weight="400" font-style="normal" transform="matrix(1,0,0,1,2306.96,422.078)" stroke-linejoin="bevel" stroke-width="2.5" fill-opacity="1" fill="#212529" font-size="31.75">
    <path fill-rule="evenodd" vector-effect="none" d="M0,0 L-5.83333,35 L5.83333,35 L0,0"/>
   </g>
   <g stroke="#212529" stroke-opacity="1" stroke-linecap="round" font-family="Sans Serif" font-weight="400" font-style="normal" transform="matrix(1,0,0,1,2306.96,893.607)" stroke-linejoin="bevel" stroke-width="2.5" fill-opacity="1" fill="#212529" font-size="31.75">
    <path fill-rule="evenodd" vector-effect="none" d="M0,0 L5.83333,-35 L-5.83333,-35 L0,0"/>
   </g>
  </g>
 </g>
</svg>
