<?xml version='1.0' encoding='UTF-8' standalone='no'?>
<svg baseProfile="tiny" height="210mm" version="1.2" viewBox="0 0 2970 2100" width="297mm" xmlns="http://www.w3.org/2000/svg" xmlns:cc="http://creativecommons.org/ns#" xmlns:dc="http://purl.org/dc/elements/1.1/" xmlns:freecad="https://www.freecad.org/wiki/index.php?title=Svg_Namespace" xmlns:inkscape="http://www.inkscape.org/namespaces/inkscape" xmlns:rdf="http://www.w3.org/1999/02/22-rdf-syntax-ns#" xmlns:sodipodi="http://sodipodi.sourceforge.net/DTD/sodipodi-0.dtd" xmlns:svg="http://www.w3.org/2000/svg" xmlns:xlink="http://www.w3.org/1999/xlink">
 <title>FreeCAD SVG Export</title>
 <desc>Drawing page: Page exported from FreeCAD document: Unnamed</desc>
 <defs/>
 <g id="Page" inkscape:groupmode="layer" inkscape:label="TechDraw">
  <g id="A3_Land_PeF_DWD_DR.svg" style="stroke: none;" transform="scale(10.000000, 10.000000)">
   <metadata id="metadata8">
    <rdf:RDF>
     <cc:Work rdf:about="">
      <dc:format>image/svg+xml</dc:format>
      <dc:type rdf:resource="http://purl.org/dc/dcmitype/StillImage"/>
     </cc:Work>
    </rdf:RDF>
   </metadata>
  </g>
  <g fill="none" fill-rule="evenodd" id="DrawingContent" stroke="black" stroke-linecap="square" stroke-linejoin="bevel" stroke-width="1">
   <g fill="#f1f3f5" fill-opacity="0" font-family="Sans Serif" font-size="31.75" font-style="normal" font-weight="400" stroke="none" transform="matrix(1,0,0,1,1486.18,1049)">
    <path d="M420,-102.679 L420,102.679 L390,120 L-120,120 L-120,149.638 L-120,187.64 L-120,216.233 L-120,233.983 L-120,240 L-390,240 L-420,210 L-420,-210 L-390,-240 L-120,-240 L-120,-233.983 L-120,-216.233 L-120,-187.64 L-120,-149.638 L-120,-120 L390,-120 L420,-120 L420,-102.679" fill-rule="evenodd" vector-effect="non-scaling-stroke"/>
   </g>
   <g fill="#f1f3f5" fill-opacity="0" font-family="Sans Serif" font-size="31.75" font-style="normal" font-weight="400" stroke="none" transform="matrix(1,0,0,1,1486.18,1049)">
    <path d="M-120,-240 L-120,-233.983 L-120,-216.233 L-120,-187.64 L-120,-149.638 L-120,-120 L-120,-104.132 L-120,-53.405 L-120,-2.66454e-14 L-120,53.405 L-120,104.132 L-120,120 L-120,149.638 L-120,187.64 L-120,216.233 L-120,233.983 L-120,240 L-390,240 L-390,-240 L-120,-240" fill-rule="evenodd" vector-effect="non-scaling-stroke"/>
   </g>
   <g fill="#f1f3f5" fill-opacity="0" font-family="Sans Serif" font-size="31.75" font-style="normal" font-weight="400" stroke="none" transform="matrix(1,0,0,1,1486.18,1049)">
    <path d="M390,-120 L390,120 L-120,120 L-120,104.132 L-120,53.405 L-120,-2.66454e-14 L-120,-53.405 L-120,-104.132 L-120,-120 L390,-120" fill-rule="evenodd" vector-effect="non-scaling-stroke"/>
   </g>
   <g fill="#f1f3f5" fill-opacity="0" font-family="Sans Serif" font-size="31.75" font-style="normal" font-weight="400" stroke="none" transform="matrix(1,0,0,1,1486.18,1049)">
    <path d="M-420,-210 L-390,-240 L-390,240 L-420,210 L-420,-210" fill-rule="evenodd" vector-effect="non-scaling-stroke"/>
   </g>
   <g fill="#f1f3f5" fill-opacity="0" font-family="Sans Serif" font-size="31.75" font-style="normal" font-weight="400" stroke="none" transform="matrix(1,0,0,1,1486.18,1049)">
    <path d="M420,-102.679 L390,-120 L390,120 L420,102.679 L420,-102.679" fill-rule="evenodd" vector-effect="non-scaling-stroke"/>
   </g>
   <g fill="#f1f3f5" fill-opacity="0" font-family="Sans Serif" font-size="31.75" font-style="normal" font-weight="400" stroke="none" transform="matrix(1,0,0,1,1486.18,1049)">
    <path d="M420,-102.679 L390,-120 L420,-120 L420,-102.679" fill-rule="evenodd" vector-effect="non-scaling-stroke"/>
   </g>
   <g fill="none" font-family="Sans Serif" font-size="31.75" font-style="normal" font-weight="400" stroke="#212529" stroke-linecap="round" stroke-linejoin="bevel" stroke-opacity="1" stroke-width="5" transform="matrix(1,0,0,1,1486.18,1049)">
    <path d="M390,-120 L390,120" fill-rule="evenodd" vector-effect="none"/>
   </g>
   <g fill="none" font-family="Sans Serif" font-size="31.75" font-style="normal" font-weight="400" stroke="#212529" stroke-linecap="round" stroke-linejoin="bevel" stroke-opacity="1" stroke-width="5" transform="matrix(1,0,0,1,1486.18,1049)">
    <path d="M420,-102.679 L420,102.679" fill-rule="evenodd" vector-effect="none"/>
   </g>
   <g fill="none" font-family="Sans Serif" font-size="31.75" font-style="normal" font-weight="400" stroke="#212529" stroke-linecap="round" stroke-linejoin="bevel" stroke-opacity="1" stroke-width="5" transform="matrix(1,0,0,1,1486.18,1049)">
    <path d="M-120,-240 L-120,240" fill-rule="evenodd" vector-effect="none"/>
   </g>
   <g fill="none" font-family="Sans Serif" font-size="31.75" font-style="normal" font-weight="400" stroke="#212529" stroke-linecap="round" stroke-linejoin="bevel" stroke-opacity="1" stroke-width="5" transform="matrix(1,0,0,1,1486.18,1049)">
    <path d="M-390,-240 L-390,240" fill-rule="evenodd" vector-effect="none"/>
   </g>
   <g fill="none" font-family="Sans Serif" font-size="31.75" font-style="normal" font-weight="400" stroke="#212529" stroke-linecap="round" stroke-linejoin="bevel" stroke-opacity="1" stroke-width="5" transform="matrix(1,0,0,1,1486.18,1049)">
    <path d="M-420,-210 L-420,210" fill-rule="evenodd" vector-effect="none"/>
   </g>
   <g fill="none" font-family="Sans Serif" font-size="31.75" font-style="normal" font-weight="400" stroke="#212529" stroke-linecap="round" stroke-linejoin="bevel" stroke-opacity="1" stroke-width="5" transform="matrix(1,0,0,1,1486.18,1049)">
    <path d="M390,-120 L-120,-120" fill-rule="evenodd" vector-effect="none"/>
   </g>
   <g fill="none" font-family="Sans Serif" font-size="31.75" font-style="normal" font-weight="400" stroke="#212529" stroke-linecap="round" stroke-linejoin="bevel" stroke-opacity="1" stroke-width="5" transform="matrix(1,0,0,1,1486.18,1049)">
    <path d="M390,120 L-120,120" fill-rule="evenodd" vector-effect="none"/>
   </g>
   <g fill="none" font-family="Sans Serif" font-size="31.75" font-style="normal" font-weight="400" stroke="#212529" stroke-linecap="round" stroke-linejoin="bevel" stroke-opacity="1" stroke-width="5" transform="matrix(1,0,0,1,1486.18,1049)">
    <path d="M420,102.679 L390,120" fill-rule="evenodd" vector-effect="none"/>
   </g>
   <g fill="none" font-family="Sans Serif" font-size="31.75" font-style="normal" font-weight="400" stroke="#212529" stroke-linecap="round" stroke-linejoin="bevel" stroke-opacity="1" stroke-width="5" transform="matrix(1,0,0,1,1486.18,1049)">
    <path d="M420,-102.679 L390,-120" fill-rule="evenodd" vector-effect="none"/>
   </g>
   <g fill="none" font-family="Sans Serif" font-size="31.75" font-style="normal" font-weight="400" stroke="#212529" stroke-linecap="round" stroke-linejoin="bevel" stroke-opacity="1" stroke-width="5" transform="matrix(1,0,0,1,1486.18,1049)">
    <path d="M-120,-240 L-390,-240" fill-rule="evenodd" vector-effect="none"/>
   </g>
   <g fill="none" font-family="Sans Serif" font-size="31.75" font-style="normal" font-weight="400" stroke="#212529" stroke-linecap="round" stroke-linejoin="bevel" stroke-opacity="1" stroke-width="5" transform="matrix(1,0,0,1,1486.18,1049)">
    <path d="M-120,240 L-390,240" fill-rule="evenodd" vector-effect="none"/>
   </g>
   <g fill="none" font-family="Sans Serif" font-size="31.75" font-style="normal" font-weight="400" stroke="#212529" stroke-linecap="round" stroke-linejoin="bevel" stroke-opacity="1" stroke-width="5" transform="matrix(1,0,0,1,1486.18,1049)">
    <path d="M-420,210 L-390,240" fill-rule="evenodd" vector-effect="none"/>
   </g>
   <g fill="none" font-family="Sans Serif" font-size="31.75" font-style="normal" font-weight="400" stroke="#212529" stroke-linecap="round" stroke-linejoin="bevel" stroke-opacity="1" stroke-width="5" transform="matrix(1,0,0,1,1486.18,1049)">
    <path d="M-420,-210 L-390,-240" fill-rule="evenodd" vector-effect="none"/>
   </g>
   <g fill="none" font-family="Sans Serif" font-size="31.75" font-style="normal" font-weight="400" stroke="#212529" stroke-dasharray="30,7.5" stroke-dashoffset="7.5" stroke-linecap="round" stroke-linejoin="bevel" stroke-opacity="1" stroke-width="2.5" transform="matrix(1,0,0,1,1486.18,1049)">
    <path d="M390,0 L390,-120" fill-rule="evenodd" vector-effect="none"/>
   </g>
   <g fill="none" font-family="Sans Serif" font-size="31.75" font-style="normal" font-weight="400" stroke="#212529" stroke-dasharray="30,7.5" stroke-dashoffset="7.5" stroke-linecap="round" stroke-linejoin="bevel" stroke-opacity="1" stroke-width="2.5" transform="matrix(1,0,0,1,1486.18,1049)">
    <path d="M390,120 L390,2.93915e-14" fill-rule="evenodd" vector-effect="none"/>
   </g>
   <g fill="none" font-family="Sans Serif" font-size="31.75" font-style="normal" font-weight="400" stroke="#212529" stroke-dasharray="30,7.5" stroke-dashoffset="7.5" stroke-linecap="round" stroke-linejoin="bevel" stroke-opacity="1" stroke-width="2.5" transform="matrix(1,0,0,1,1486.18,1049)">
    <path d="M420,0 L420,-102.679" fill-rule="evenodd" vector-effect="none"/>
   </g>
   <g fill="none" font-family="Sans Serif" font-size="31.75" font-style="normal" font-weight="400" stroke="#212529" stroke-dasharray="30,7.5" stroke-dashoffset="7.5" stroke-linecap="round" stroke-linejoin="bevel" stroke-opacity="1" stroke-width="2.5" transform="matrix(1,0,0,1,1486.18,1049)">
    <path d="M420,102.679 L420,2.51492e-14" fill-rule="evenodd" vector-effect="none"/>
   </g>
   <g fill="none" font-family="Sans Serif" font-size="31.75" font-style="normal" font-weight="400" stroke="#212529" stroke-dasharray="30,7.5" stroke-dashoffset="7.5" stroke-linecap="round" stroke-linejoin="bevel" stroke-opacity="1" stroke-width="2.5" transform="matrix(1,0,0,1,1486.18,1049)">
    <path d="M-120,240 L-120,5.8783e-14" fill-rule="evenodd" vector-effect="none"/>
   </g>
   <g fill="none" font-family="Sans Serif" font-size="31.75" font-style="normal" font-weight="400" stroke="#212529" stroke-dasharray="30,7.5" stroke-dashoffset="7.5" stroke-linecap="round" stroke-linejoin="bevel" stroke-opacity="1" stroke-width="2.5" transform="matrix(1,0,0,1,1486.18,1049)">
    <path d="M-390,0 L-390,-240" fill-rule="evenodd" vector-effect="none"/>
   </g>
   <g fill="none" font-family="Sans Serif" font-size="31.75" font-style="normal" font-weight="400" stroke="#212529" stroke-dasharray="30,7.5" stroke-dashoffset="7.5" stroke-linecap="round" stroke-linejoin="bevel" stroke-opacity="1" stroke-width="2.5" transform="matrix(1,0,0,1,1486.18,1049)">
    <path d="M-390,240 L-390,5.8783e-14" fill-rule="evenodd" vector-effect="none"/>
   </g>
   <g fill="none" font-family="Sans Serif" font-size="31.75" font-style="normal" font-weight="400" stroke="#212529" stroke-dasharray="30,7.5" stroke-dashoffset="7.5" stroke-linecap="round" stroke-linejoin="bevel" stroke-opacity="1" stroke-width="2.5" transform="matrix(1,0,0,1,1486.18,1049)">
    <path d="M-420,0 L-420,-210" fill-rule="evenodd" vector-effect="none"/>
   </g>
   <g fill="none" font-family="Sans Serif" font-size="31.75" font-style="normal" font-weight="400" stroke="#212529" stroke-dasharray="30,7.5" stroke-dashoffset="7.5" stroke-linecap="round" stroke-linejoin="bevel" stroke-opacity="1" stroke-width="2.5" transform="matrix(1,0,0,1,1486.18,1049)">
    <path d="M-420,210 L-420,5.14352e-14" fill-rule="evenodd" vector-effect="none"/>
   </g>
   <g fill="none" font-family="Sans Serif" font-size="31.75" font-style="normal" font-weight="400" stroke="#212529" stroke-dasharray="30,7.5" stroke-dashoffset="7.5" stroke-linecap="round" stroke-linejoin="bevel" stroke-opacity="1" stroke-width="2.5" transform="matrix(1,0,0,1,1486.18,1049)">
    <path d="M-120,-120 L-120,-116.991 L-120,-108.116 L-120,-93.8198 L-120,-74.8188 L-120,-52.066 L-120,-26.7025 L-120,-1.55431e-14" fill-rule="evenodd" vector-effect="none"/>
   </g>
   <g fill="none" font-family="Sans Serif" font-size="31.75" font-style="normal" font-weight="400" stroke="#212529" stroke-dasharray="30,7.5" stroke-dashoffset="7.5" stroke-linecap="round" stroke-linejoin="bevel" stroke-opacity="1" stroke-width="2.5" transform="matrix(1,0,0,1,1486.18,1049)">
    <path d="M-120,-1.33227e-14 L-120,26.7025 L-120,52.066 L-120,74.8188 L-120,93.8198 L-120,108.116 L-120,116.991 L-120,120" fill-rule="evenodd" vector-effect="none"/>
   </g>
   <g fill="none" font-family="Sans Serif" font-size="31.75" font-style="normal" font-weight="400" stroke="#212529" stroke-dasharray="30,7.5" stroke-dashoffset="7.5" stroke-linecap="round" stroke-linejoin="bevel" stroke-opacity="1" stroke-width="2.5" transform="matrix(1,0,0,1,1486.18,1049)">
    <path d="M-120,-120 L-120,-127.688 L-120,-149.638 L-120,-169.706 L-120,-187.64 L-120,-203.214 L-120,-216.233 L-120,-226.532 L-120,-233.983 L-120,-238.491 L-120,-240" fill-rule="evenodd" vector-effect="none"/>
   </g>
   <g fill="none" font-family="Sans Serif" font-size="31.75" font-style="normal" font-weight="400" stroke="#212529" stroke-linecap="round" stroke-linejoin="bevel" stroke-opacity="1" stroke-width="2.5" transform="matrix(1,0,0,1,1486.18,1049)">
    <path d="M-480,240 L-390,240" fill-rule="evenodd" vector-effect="none"/>
   </g>
   <g fill="none" font-family="Sans Serif" font-size="31.75" font-style="normal" font-weight="400" stroke="#212529" stroke-linecap="round" stroke-linejoin="bevel" stroke-opacity="1" stroke-width="2.5" transform="matrix(1,0,0,1,1486.18,1049)">
    <path d="M390,-120 L420,-120" fill-rule="evenodd" vector-effect="none"/>
   </g>
   <g fill="none" font-family="Sans Serif" font-size="31.75" font-style="normal" font-weight="400" stroke="#000000" stroke-linecap="round" stroke-linejoin="bevel" stroke-opacity="1" stroke-width="2.5" transform="matrix(1,0,0,1,1486.18,1049)">
    <path d="M420,-102.679 L420,-120" fill-rule="evenodd" vector-effect="none"/>
   </g>
   <g fill="none" font-family="Sans Serif" font-size="31.75" font-style="normal" font-weight="400" stroke="#212529" stroke-dasharray="30,7.5,2.5,7.5" stroke-dashoffset="0" stroke-linecap="round" stroke-linejoin="bevel" stroke-opacity="1" stroke-width="2.5" transform="matrix(1,0,0,1,1486.18,1049)">
    <path d="M-460,3.73035e-13 L190,3.73035e-13" fill-rule="evenodd" vector-effect="none"/>
   </g>
   <g fill="none" font-family="Sans Serif" font-size="31.75" font-style="normal" font-weight="400" stroke="#212529" stroke-dasharray="30,7.5,2.5,7.5" stroke-dashoffset="0" stroke-linecap="round" stroke-linejoin="bevel" stroke-opacity="1" stroke-width="2.5" transform="matrix(1,0,0,1,1486.18,1049)">
    <path d="M270,3.73035e-13 L480,3.73035e-13" fill-rule="evenodd" vector-effect="none"/>
   </g>
   <g fill="none" font-family="Sans Serif" font-size="31.75" font-style="normal" font-weight="400" stroke="#212529" stroke-linecap="square" stroke-linejoin="bevel" stroke-opacity="1" stroke-width="1" transform="matrix(0,-1,1,0,907.225,1088.86)">
    <text fill="#212529" fill-opacity="1" font-family="ISOCPEUR" font-size="53" font-style="normal" font-weight="400" stroke="none" x="4" xml:space="preserve" y="55.2344">⌀16</text>
   </g>
   <g fill="none" font-family="Sans Serif" font-size="31.75" font-style="normal" font-weight="400" stroke="#212529" stroke-linecap="round" stroke-linejoin="bevel" stroke-opacity="1" stroke-width="2.5" transform="matrix(1,0,0,1,1486.18,1049)">
    <path d="M-505.456,240 L-505.456,-240 M-390,-240 L-525.456,-240 M-390,240 L-525.456,240" fill-rule="evenodd" vector-effect="none"/>
   </g>
   <g fill="#212529" fill-opacity="1" font-family="Sans Serif" font-size="31.75" font-style="normal" font-weight="400" stroke="#212529" stroke-linecap="round" stroke-linejoin="bevel" stroke-opacity="1" stroke-width="2.5" transform="matrix(1,0,0,1,980.725,809)">
    <path d="M0,0 L-5.83333,35 L5.83333,35 L0,0" fill-rule="evenodd" vector-effect="none"/>
   </g>
   <g fill="#212529" fill-opacity="1" font-family="Sans Serif" font-size="31.75" font-style="normal" font-weight="400" stroke="#212529" stroke-linecap="round" stroke-linejoin="bevel" stroke-opacity="1" stroke-width="2.5" transform="matrix(1,0,0,1,980.725,1289)">
    <path d="M0,0 L5.83333,-35 L-5.83333,-35 L0,0" fill-rule="evenodd" vector-effect="none"/>
   </g>
   <g fill="none" font-family="Sans Serif" font-size="31.75" font-style="normal" font-weight="400" stroke="#212529" stroke-linecap="square" stroke-linejoin="bevel" stroke-opacity="1" stroke-width="1" transform="matrix(1,0,0,1,1135.86,1310.91)">
    <text fill="#212529" fill-opacity="1" font-family="ISOCPEUR" font-size="53" font-style="normal" font-weight="400" stroke="none" x="4" xml:space="preserve" y="55.2344">1×45°</text>
   </g>
   <g fill="none" font-family="Sans Serif" font-size="31.75" font-style="normal" font-weight="400" stroke="#212529" stroke-linecap="round" stroke-linejoin="bevel" stroke-opacity="1" stroke-width="2.5" transform="matrix(1,0,0,1,1486.18,1049)">
    <path d="M-490,335.415 L-220.298,335.415 M-390,240 L-390,355.415 M-420,210 L-420,355.415" fill-rule="evenodd" vector-effect="none"/>
   </g>
   <g fill="#212529" fill-opacity="1" font-family="Sans Serif" font-size="31.75" font-style="normal" font-weight="400" stroke="#212529" stroke-linecap="round" stroke-linejoin="bevel" stroke-opacity="1" stroke-width="2.5" transform="matrix(1,0,0,1,1096.18,1384.41)">
    <path d="M0,0 L35,5.83333 L35,-5.83333 L0,0" fill-rule="evenodd" vector-effect="none"/>
   </g>
   <g fill="#212529" fill-opacity="1" font-family="Sans Serif" font-size="31.75" font-style="normal" font-weight="400" stroke="#212529" stroke-linecap="round" stroke-linejoin="bevel" stroke-opacity="1" stroke-width="2.5" transform="matrix(1,0,0,1,1066.18,1384.41)">
    <path d="M0,0 L-35,-5.83333 L-35,5.83333 L0,0" fill-rule="evenodd" vector-effect="none"/>
   </g>
   <g fill="none" font-family="Sans Serif" font-size="31.75" font-style="normal" font-weight="400" stroke="#212529" stroke-linecap="square" stroke-linejoin="bevel" stroke-opacity="1" stroke-width="1" transform="matrix(0.233483,-0.972361,0.972361,0.233483,2009.68,1000.29)">
    <text fill="#212529" fill-opacity="1" font-family="ISOCPEUR" font-size="53" font-style="normal" font-weight="400" stroke="none" x="4" xml:space="preserve" y="55.2344">30°</text>
   </g>
   <g fill="none" font-family="Sans Serif" font-size="31.75" font-style="normal" font-weight="400" stroke="#212529" stroke-linecap="round" stroke-linejoin="bevel" stroke-opacity="1" stroke-width="2.5" transform="matrix(1,0,0,1,1486.18,1049)">
    <path d="M580.51,-9.9976 C599.235,-42.3556 609.951,-79.9262 609.951,-120 M420,-102.679 L597.804,-0.0242559 M420,-120 L629.951,-120" fill-rule="evenodd" vector-effect="none"/>
   </g>
   <g fill="#212529" fill-opacity="1" font-family="Sans Serif" font-size="31.75" font-style="normal" font-weight="400" stroke="#212529" stroke-linecap="round" stroke-linejoin="bevel" stroke-opacity="1" stroke-width="2.5" transform="matrix(1,0,0,1,2066.66,1038.98)">
    <path d="M0,0 L22.5518,-27.3942 L12.4482,-33.2276 L0,0" fill-rule="evenodd" vector-effect="none"/>
   </g>
   <g fill="#212529" fill-opacity="1" font-family="Sans Serif" font-size="31.75" font-style="normal" font-weight="400" stroke="#212529" stroke-linecap="round" stroke-linejoin="bevel" stroke-opacity="1" stroke-width="2.5" transform="matrix(1,0,0,1,2096.13,929)">
    <path d="M0,0 L-5.83333,35 L5.83333,35 L0,0" fill-rule="evenodd" vector-effect="none"/>
   </g>
   <g fill="none" font-family="Sans Serif" font-size="31.75" font-style="normal" font-weight="400" stroke="#212529" stroke-linecap="square" stroke-linejoin="bevel" stroke-opacity="1" stroke-width="1" transform="matrix(1,0,0,1,1945.95,799.838)">
    <text fill="#212529" fill-opacity="1" font-family="ISOCPEUR" font-size="53" font-style="normal" font-weight="400" stroke="none" x="4" xml:space="preserve" y="55.2344">1</text>
   </g>
   <g fill="none" font-family="Sans Serif" font-size="31.75" font-style="normal" font-weight="400" stroke="#212529" stroke-linecap="round" stroke-linejoin="bevel" stroke-opacity="1" stroke-width="2.5" transform="matrix(1,0,0,1,1486.18,1049)">
    <path d="M320,-175.912 L493.83,-175.912 M420,-120 L420,-195.912 M390,-120 L390,-195.912" fill-rule="evenodd" vector-effect="none"/>
   </g>
   <g fill="#212529" fill-opacity="1" font-family="Sans Serif" font-size="31.75" font-style="normal" font-weight="400" stroke="#212529" stroke-linecap="round" stroke-linejoin="bevel" stroke-opacity="1" stroke-width="2.5" transform="matrix(1,0,0,1,1906.18,873.088)">
    <path d="M0,0 L35,5.83333 L35,-5.83333 L0,0" fill-rule="evenodd" vector-effect="none"/>
   </g>
   <g fill="#212529" fill-opacity="1" font-family="Sans Serif" font-size="31.75" font-style="normal" font-weight="400" stroke="#212529" stroke-linecap="round" stroke-linejoin="bevel" stroke-opacity="1" stroke-width="2.5" transform="matrix(1,0,0,1,1876.18,873.088)">
    <path d="M0,0 L-35,-5.83333 L-35,5.83333 L0,0" fill-rule="evenodd" vector-effect="none"/>
   </g>
   <g fill="none" font-family="Sans Serif" font-size="31.75" font-style="normal" font-weight="400" stroke="#212529" stroke-linecap="square" stroke-linejoin="bevel" stroke-opacity="1" stroke-width="1" transform="matrix(0,-1,1,0,1668.87,1080.32)">
    <text fill="#212529" fill-opacity="1" font-family="ISOCPEUR" font-size="53" font-style="normal" font-weight="400" stroke="none" x="4" xml:space="preserve" y="55.2344">⌀8</text>
   </g>
   <g fill="none" font-family="Sans Serif" font-size="31.75" font-style="normal" font-weight="400" stroke="#212529" stroke-linecap="round" stroke-linejoin="bevel" stroke-opacity="1" stroke-width="2.5" transform="matrix(1,0,0,1,1486.18,1049)">
    <path d="M256.193,-120 L256.193,120 M390,120 L236.193,120 M390,-120 L236.193,-120" fill-rule="evenodd" vector-effect="none"/>
   </g>
   <g fill="#212529" fill-opacity="1" font-family="Sans Serif" font-size="31.75" font-style="normal" font-weight="400" stroke="#212529" stroke-linecap="round" stroke-linejoin="bevel" stroke-opacity="1" stroke-width="2.5" transform="matrix(1,0,0,1,1742.37,1169)">
    <path d="M0,0 L5.83333,-35 L-5.83333,-35 L0,0" fill-rule="evenodd" vector-effect="none"/>
   </g>
   <g fill="#212529" fill-opacity="1" font-family="Sans Serif" font-size="31.75" font-style="normal" font-weight="400" stroke="#212529" stroke-linecap="round" stroke-linejoin="bevel" stroke-opacity="1" stroke-width="2.5" transform="matrix(1,0,0,1,1742.37,929)">
    <path d="M0,0 L-5.83333,35 L5.83333,35 L0,0" fill-rule="evenodd" vector-effect="none"/>
   </g>
   <g fill="none" font-family="Sans Serif" font-size="31.75" font-style="normal" font-weight="400" stroke="#212529" stroke-linecap="square" stroke-linejoin="bevel" stroke-opacity="1" stroke-width="1" transform="matrix(1,0,0,1,1191.69,639.261)">
    <text fill="#212529" fill-opacity="1" font-family="ISOCPEUR" font-size="53" font-style="normal" font-weight="400" stroke="none" x="4" xml:space="preserve" y="55.2344">10</text>
   </g>
   <g fill="none" font-family="Sans Serif" font-size="31.75" font-style="normal" font-weight="400" stroke="#212529" stroke-linecap="round" stroke-linejoin="bevel" stroke-opacity="1" stroke-width="2.5" transform="matrix(1,0,0,1,1486.18,1049)">
    <path d="M-420,-336.488 L-120,-336.488 M-120,-240 L-120,-356.488 M-420,-210 L-420,-356.488" fill-rule="evenodd" vector-effect="none"/>
   </g>
   <g fill="#212529" fill-opacity="1" font-family="Sans Serif" font-size="31.75" font-style="normal" font-weight="400" stroke="#212529" stroke-linecap="round" stroke-linejoin="bevel" stroke-opacity="1" stroke-width="2.5" transform="matrix(1,0,0,1,1366.18,712.511)">
    <path d="M0,0 L-35,-5.83333 L-35,5.83333 L0,0" fill-rule="evenodd" vector-effect="none"/>
   </g>
   <g fill="#212529" fill-opacity="1" font-family="Sans Serif" font-size="31.75" font-style="normal" font-weight="400" stroke="#212529" stroke-linecap="round" stroke-linejoin="bevel" stroke-opacity="1" stroke-width="2.5" transform="matrix(1,0,0,1,1066.18,712.511)">
    <path d="M0,0 L35,5.83333 L35,-5.83333 L0,0" fill-rule="evenodd" vector-effect="none"/>
   </g>
   <g fill="none" font-family="Sans Serif" font-size="31.75" font-style="normal" font-weight="400" stroke="#212529" stroke-linecap="square" stroke-linejoin="bevel" stroke-opacity="1" stroke-width="1" transform="matrix(1,0,0,1,1458.27,569.261)">
    <text fill="#212529" fill-opacity="1" font-family="ISOCPEUR" font-size="53" font-style="normal" font-weight="400" stroke="none" x="4" xml:space="preserve" y="55.2344">28</text>
   </g>
   <g fill="none" font-family="Sans Serif" font-size="31.75" font-style="normal" font-weight="400" stroke="#212529" stroke-linecap="round" stroke-linejoin="bevel" stroke-opacity="1" stroke-width="2.5" transform="matrix(1,0,0,1,1486.18,1049)">
    <path d="M-420,-406.488 L420,-406.488 M420,-102.679 L420,-426.488 M-420,-210 L-420,-426.488" fill-rule="evenodd" vector-effect="none"/>
   </g>
   <g fill="#212529" fill-opacity="1" font-family="Sans Serif" font-size="31.75" font-style="normal" font-weight="400" stroke="#212529" stroke-linecap="round" stroke-linejoin="bevel" stroke-opacity="1" stroke-width="2.5" transform="matrix(1,0,0,1,1906.18,642.511)">
    <path d="M0,0 L-35,-5.83333 L-35,5.83333 L0,0" fill-rule="evenodd" vector-effect="none"/>
   </g>
   <g fill="#212529" fill-opacity="1" font-family="Sans Serif" font-size="31.75" font-style="normal" font-weight="400" stroke="#212529" stroke-linecap="round" stroke-linejoin="bevel" stroke-opacity="1" stroke-width="2.5" transform="matrix(1,0,0,1,1066.18,642.511)">
    <path d="M0,0 L35,5.83333 L35,-5.83333 L0,0" fill-rule="evenodd" vector-effect="none"/>
   </g>
  </g>
 </g>
</svg>
