<?xml version='1.0' encoding='UTF-8' standalone='no'?>
<svg baseProfile="tiny" height="210mm" version="1.2" viewBox="0 0 2970 2100" width="297mm" xmlns="http://www.w3.org/2000/svg" xmlns:cc="http://creativecommons.org/ns#" xmlns:dc="http://purl.org/dc/elements/1.1/" xmlns:freecad="https://www.freecad.org/wiki/index.php?title=Svg_Namespace" xmlns:inkscape="http://www.inkscape.org/namespaces/inkscape" xmlns:rdf="http://www.w3.org/1999/02/22-rdf-syntax-ns#" xmlns:sodipodi="http://sodipodi.sourceforge.net/DTD/sodipodi-0.dtd" xmlns:svg="http://www.w3.org/2000/svg" xmlns:xlink="http://www.w3.org/1999/xlink">
 <title>FreeCAD SVG Export</title>
 <desc>Drawing page: Page exported from FreeCAD document: PripravaPredloge</desc>
 <defs/>
 <g id="Page" inkscape:groupmode="layer" inkscape:label="TechDraw">
  <g id="A4_Land_PeF_DWD_DR.svg" style="stroke: none;" transform="scale(10.000000, 10.000000)">
   <metadata id="metadata8">
    <rdf:RDF>
     <cc:Work rdf:about="">
      <dc:format>image/svg+xml</dc:format>
      <dc:type rdf:resource="http://purl.org/dc/dcmitype/StillImage"/>
     </cc:Work>
    </rdf:RDF>
   </metadata>
  </g>
  <g fill="none" fill-rule="evenodd" id="DrawingContent" stroke="black" stroke-linecap="square" stroke-linejoin="bevel" stroke-width="1">
   <g fill="#f1f3f5" fill-opacity="0" font-family="Sans Serif" font-size="31.75" font-style="normal" font-weight="400" stroke="none" transform="matrix(1,0,0,1,1503.86,1099.8)">
    <path d="M500,-75 L500,75 L-500,75 L-500,-75 L500,-75" fill-rule="evenodd" vector-effect="non-scaling-stroke"/>
   </g>
   <g fill="none" font-family="Sans Serif" font-size="31.75" font-style="normal" font-weight="400" stroke="#000000" stroke-linecap="round" stroke-linejoin="bevel" stroke-opacity="1" stroke-width="5" transform="matrix(1,0,0,1,1503.86,1099.8)">
    <path d="M500,-75 L500,75" fill-rule="evenodd" vector-effect="none"/>
   </g>
   <g fill="none" font-family="Sans Serif" font-size="31.75" font-style="normal" font-weight="400" stroke="#000000" stroke-linecap="round" stroke-linejoin="bevel" stroke-opacity="1" stroke-width="5" transform="matrix(1,0,0,1,1503.86,1099.8)">
    <path d="M500,75 L-500,75" fill-rule="evenodd" vector-effect="none"/>
   </g>
   <g fill="none" font-family="Sans Serif" font-size="31.75" font-style="normal" font-weight="400" stroke="#000000" stroke-linecap="round" stroke-linejoin="bevel" stroke-opacity="1" stroke-width="5" transform="matrix(1,0,0,1,1503.86,1099.8)">
    <path d="M-500,75 L-500,-75" fill-rule="evenodd" vector-effect="none"/>
   </g>
   <g fill="none" font-family="Sans Serif" font-size="31.75" font-style="normal" font-weight="400" stroke="#000000" stroke-linecap="round" stroke-linejoin="bevel" stroke-opacity="1" stroke-width="5" transform="matrix(1,0,0,1,1503.86,1099.8)">
    <path d="M-500,-75 L500,-75" fill-rule="evenodd" vector-effect="none"/>
   </g>
   <g fill="none" font-family="Sans Serif" font-size="31.75" font-style="normal" font-weight="400" stroke="#212529" stroke-linecap="square" stroke-linejoin="bevel" stroke-opacity="1" stroke-width="1" transform="matrix(1,0,0,1,1464,1258.12)">
    <text fill="#212529" fill-opacity="1" font-family="ISOCPEUR" font-size="53" font-style="normal" font-weight="400" stroke="none" x="4" xml:space="preserve" y="55.2344">200</text>
   </g>
   <g fill="none" font-family="Sans Serif" font-size="31.75" font-style="normal" font-weight="400" stroke="#212529" stroke-linecap="round" stroke-linejoin="bevel" stroke-opacity="1" stroke-width="2.5" transform="matrix(1,0,0,1,1503.86,1099.8)">
    <path d="M500,231.571 L-500,231.571 M-500,75 L-500,251.571 M500,75 L500,251.571" fill-rule="evenodd" vector-effect="none"/>
   </g>
   <g fill="#212529" fill-opacity="1" font-family="Sans Serif" font-size="31.75" font-style="normal" font-weight="400" stroke="#212529" stroke-linecap="round" stroke-linejoin="bevel" stroke-opacity="1" stroke-width="2.5" transform="matrix(1,0,0,1,1003.86,1331.37)">
    <path d="M0,0 L35,5.83333 L35,-5.83333 L0,0" fill-rule="evenodd" vector-effect="none"/>
   </g>
   <g fill="#212529" fill-opacity="1" font-family="Sans Serif" font-size="31.75" font-style="normal" font-weight="400" stroke="#212529" stroke-linecap="round" stroke-linejoin="bevel" stroke-opacity="1" stroke-width="2.5" transform="matrix(1,0,0,1,2003.86,1331.37)">
    <path d="M0,0 L-35,-5.83333 L-35,5.83333 L0,0" fill-rule="evenodd" vector-effect="none"/>
   </g>
   <g fill="none" font-family="Sans Serif" font-size="31.75" font-style="normal" font-weight="400" stroke="#212529" stroke-linecap="square" stroke-linejoin="bevel" stroke-opacity="1" stroke-width="1" transform="matrix(0,-1,1,0,2145.96,1127.71)">
    <text fill="#212529" fill-opacity="1" font-family="ISOCPEUR" font-size="53" font-style="normal" font-weight="400" stroke="none" x="4" xml:space="preserve" y="55.2344">30</text>
   </g>
   <g fill="none" font-family="Sans Serif" font-size="31.75" font-style="normal" font-weight="400" stroke="#212529" stroke-linecap="round" stroke-linejoin="bevel" stroke-opacity="1" stroke-width="2.5" transform="matrix(1,0,0,1,1503.86,1099.8)">
    <path d="M715.357,-75 L715.357,75 M500,75 L735.357,75 M500,-75 L735.357,-75" fill-rule="evenodd" vector-effect="none"/>
   </g>
   <g fill="#212529" fill-opacity="1" font-family="Sans Serif" font-size="31.75" font-style="normal" font-weight="400" stroke="#212529" stroke-linecap="round" stroke-linejoin="bevel" stroke-opacity="1" stroke-width="2.5" transform="matrix(1,0,0,1,2219.21,1174.8)">
    <path d="M0,0 L5.83333,-35 L-5.83333,-35 L0,0" fill-rule="evenodd" vector-effect="none"/>
   </g>
   <g fill="#212529" fill-opacity="1" font-family="Sans Serif" font-size="31.75" font-style="normal" font-weight="400" stroke="#212529" stroke-linecap="round" stroke-linejoin="bevel" stroke-opacity="1" stroke-width="2.5" transform="matrix(1,0,0,1,2219.21,1024.8)">
    <path d="M0,0 L-5.83333,35 L5.83333,35 L0,0" fill-rule="evenodd" vector-effect="none"/>
   </g>
   <g fill="none" font-family="Sans Serif" font-size="31.75" font-style="normal" font-weight="400" stroke="#000000" stroke-linecap="round" stroke-linejoin="bevel" stroke-opacity="1" stroke-width="3.5" transform="matrix(1,0,0,1,1501.46,1099.8)">
    <path d="M50,-75 L50,75" fill-rule="evenodd" vector-effect="none"/>
   </g>
   <g fill="none" font-family="Sans Serif" font-size="31.75" font-style="normal" font-weight="400" stroke="#000000" stroke-linecap="round" stroke-linejoin="bevel" stroke-opacity="1" stroke-width="3.5" transform="matrix(1,0,0,1,1501.46,1099.8)">
    <path d="M50,-45 L500,-45" fill-rule="evenodd" vector-effect="none"/>
   </g>
   <g fill="none" font-family="Sans Serif" font-size="31.75" font-style="normal" font-weight="400" stroke="#000000" stroke-linecap="round" stroke-linejoin="bevel" stroke-opacity="1" stroke-width="3.5" transform="matrix(1,0,0,1,1501.46,1099.8)">
    <path d="M50,15 L500,15" fill-rule="evenodd" vector-effect="none"/>
   </g>
   <g fill="none" font-family="Sans Serif" font-size="31.75" font-style="normal" font-weight="400" stroke="#000000" stroke-linecap="round" stroke-linejoin="bevel" stroke-opacity="1" stroke-width="3.5" transform="matrix(1,0,0,1,1501.46,1099.8)">
    <path d="M50,-25 L-500,-25" fill-rule="evenodd" vector-effect="none"/>
   </g>
   <g fill="none" font-family="Sans Serif" font-size="31.75" font-style="normal" font-weight="400" stroke="#000000" stroke-linecap="round" stroke-linejoin="bevel" stroke-opacity="1" stroke-width="3.5" transform="matrix(1,0,0,1,1501.46,1099.8)">
    <path d="M325,-45 L325,-75" fill-rule="evenodd" vector-effect="none"/>
   </g>
   <g fill="none" font-family="Sans Serif" font-size="31.75" font-style="normal" font-weight="400" stroke="#000000" stroke-linecap="round" stroke-linejoin="bevel" stroke-opacity="1" stroke-width="3.5" transform="matrix(1,0,0,1,1501.46,1099.8)">
    <path d="M-225,-25 L-225,75" fill-rule="evenodd" vector-effect="none"/>
   </g>
   <g fill="none" font-family="Sans Serif" font-size="31.75" font-style="normal" font-weight="400" stroke="#000000" stroke-linecap="round" stroke-linejoin="bevel" stroke-opacity="1" stroke-width="3.5" transform="matrix(1,0,0,1,1501.46,1099.8)">
    <path d="M-225,-25 L-225,-75" fill-rule="evenodd" vector-effect="none"/>
   </g>
   <g fill="none" font-family="Sans Serif" font-size="31.75" font-style="normal" font-weight="400" stroke="#212529" stroke-linecap="square" stroke-linejoin="bevel" stroke-opacity="1" stroke-width="1" transform="matrix(0,-1,1,0,2027.43,1055.75)">
    <text fill="#212529" fill-opacity="1" font-family="ISOCPEUR" font-size="53" font-style="normal" font-weight="400" stroke="none" x="4" xml:space="preserve" y="55.2344">6</text>
   </g>
   <g fill="none" font-family="Sans Serif" font-size="31.75" font-style="normal" font-weight="400" stroke="#212529" stroke-linecap="round" stroke-linejoin="bevel" stroke-opacity="1" stroke-width="2.5" transform="matrix(1,0,0,1,1501.46,1099.8)">
    <path d="M599.22,-145 L599.22,25 M500,-45 L619.22,-45 M325,-75 L619.22,-75" fill-rule="evenodd" vector-effect="none"/>
   </g>
   <g fill="#212529" fill-opacity="1" font-family="Sans Serif" font-size="31.75" font-style="normal" font-weight="400" stroke="#212529" stroke-linecap="round" stroke-linejoin="bevel" stroke-opacity="1" stroke-width="2.5" transform="matrix(1,0,0,1,2100.68,1054.8)">
    <path d="M0,0 L-5.83333,35 L5.83333,35 L0,0" fill-rule="evenodd" vector-effect="none"/>
   </g>
   <g fill="#212529" fill-opacity="1" font-family="Sans Serif" font-size="31.75" font-style="normal" font-weight="400" stroke="#212529" stroke-linecap="round" stroke-linejoin="bevel" stroke-opacity="1" stroke-width="2.5" transform="matrix(1,0,0,1,2100.68,1024.8)">
    <path d="M0,0 L5.83333,-35 L-5.83333,-35 L0,0" fill-rule="evenodd" vector-effect="none"/>
   </g>
   <g fill="none" font-family="Sans Serif" font-size="31.75" font-style="normal" font-weight="400" stroke="#212529" stroke-linecap="square" stroke-linejoin="bevel" stroke-opacity="1" stroke-width="1" transform="matrix(0,-1,1,0,2027.43,1109.29)">
    <text fill="#212529" fill-opacity="1" font-family="ISOCPEUR" font-size="53" font-style="normal" font-weight="400" stroke="none" x="4" xml:space="preserve" y="55.2344">12</text>
   </g>
   <g fill="none" font-family="Sans Serif" font-size="31.75" font-style="normal" font-weight="400" stroke="#212529" stroke-linecap="round" stroke-linejoin="bevel" stroke-opacity="1" stroke-width="2.5" transform="matrix(1,0,0,1,1501.46,1099.8)">
    <path d="M599.22,-55 L599.22,25 M500,15 L619.22,15 M500,-45 L619.22,-45" fill-rule="evenodd" vector-effect="none"/>
   </g>
   <g fill="#212529" fill-opacity="1" font-family="Sans Serif" font-size="31.75" font-style="normal" font-weight="400" stroke="#212529" stroke-linecap="round" stroke-linejoin="bevel" stroke-opacity="1" stroke-width="2.5" transform="matrix(1,0,0,1,2100.68,1114.8)">
    <path d="M0,0 L5.83333,-35 L-5.83333,-35 L0,0" fill-rule="evenodd" vector-effect="none"/>
   </g>
   <g fill="#212529" fill-opacity="1" font-family="Sans Serif" font-size="31.75" font-style="normal" font-weight="400" stroke="#212529" stroke-linecap="round" stroke-linejoin="bevel" stroke-opacity="1" stroke-width="2.5" transform="matrix(1,0,0,1,2100.68,1054.8)">
    <path d="M0,0 L-5.83333,35 L5.83333,35 L0,0" fill-rule="evenodd" vector-effect="none"/>
   </g>
   <g fill="none" font-family="Sans Serif" font-size="31.75" font-style="normal" font-weight="400" stroke="#212529" stroke-linecap="square" stroke-linejoin="bevel" stroke-opacity="1" stroke-width="1" transform="matrix(0,-1,1,0,2027.43,1169.29)">
    <text fill="#212529" fill-opacity="1" font-family="ISOCPEUR" font-size="53" font-style="normal" font-weight="400" stroke="none" x="4" xml:space="preserve" y="55.2344">12</text>
   </g>
   <g fill="none" font-family="Sans Serif" font-size="31.75" font-style="normal" font-weight="400" stroke="#212529" stroke-linecap="round" stroke-linejoin="bevel" stroke-opacity="1" stroke-width="2.5" transform="matrix(1,0,0,1,1501.46,1099.8)">
    <path d="M599.22,-55 L599.22,145 M50,75 L619.22,75 M500,15 L619.22,15" fill-rule="evenodd" vector-effect="none"/>
   </g>
   <g fill="#212529" fill-opacity="1" font-family="Sans Serif" font-size="31.75" font-style="normal" font-weight="400" stroke="#212529" stroke-linecap="round" stroke-linejoin="bevel" stroke-opacity="1" stroke-width="2.5" transform="matrix(1,0,0,1,2100.68,1174.8)">
    <path d="M0,0 L-5.83333,35 L5.83333,35 L0,0" fill-rule="evenodd" vector-effect="none"/>
   </g>
   <g fill="#212529" fill-opacity="1" font-family="Sans Serif" font-size="31.75" font-style="normal" font-weight="400" stroke="#212529" stroke-linecap="round" stroke-linejoin="bevel" stroke-opacity="1" stroke-width="2.5" transform="matrix(1,0,0,1,2100.68,1114.8)">
    <path d="M0,0 L5.83333,-35 L-5.83333,-35 L0,0" fill-rule="evenodd" vector-effect="none"/>
   </g>
   <g fill="none" font-family="Sans Serif" font-size="31.75" font-style="normal" font-weight="400" stroke="#212529" stroke-linecap="square" stroke-linejoin="bevel" stroke-opacity="1" stroke-width="1" transform="matrix(1,0,0,1,1111.06,878.949)">
    <text fill="#212529" fill-opacity="1" font-family="ISOCPEUR" font-size="53" font-style="normal" font-weight="400" stroke="none" x="4" xml:space="preserve" y="55.2344">55</text>
   </g>
   <g fill="none" font-family="Sans Serif" font-size="31.75" font-style="normal" font-weight="400" stroke="#212529" stroke-linecap="round" stroke-linejoin="bevel" stroke-opacity="1" stroke-width="2.5" transform="matrix(1,0,0,1,1501.46,1099.8)">
    <path d="M-500,-147.601 L-225,-147.601 M-225,-75 L-225,-167.601 M-500,-25 L-500,-167.601" fill-rule="evenodd" vector-effect="none"/>
   </g>
   <g fill="#212529" fill-opacity="1" font-family="Sans Serif" font-size="31.75" font-style="normal" font-weight="400" stroke="#212529" stroke-linecap="round" stroke-linejoin="bevel" stroke-opacity="1" stroke-width="2.5" transform="matrix(1,0,0,1,1276.46,952.199)">
    <path d="M0,0 L-35,-5.83333 L-35,5.83333 L0,0" fill-rule="evenodd" vector-effect="none"/>
   </g>
   <g fill="#212529" fill-opacity="1" font-family="Sans Serif" font-size="31.75" font-style="normal" font-weight="400" stroke="#212529" stroke-linecap="round" stroke-linejoin="bevel" stroke-opacity="1" stroke-width="2.5" transform="matrix(1,0,0,1,1001.46,952.199)">
    <path d="M0,0 L35,5.83333 L35,-5.83333 L0,0" fill-rule="evenodd" vector-effect="none"/>
   </g>
   <g fill="none" font-family="Sans Serif" font-size="31.75" font-style="normal" font-weight="400" stroke="#212529" stroke-linecap="square" stroke-linejoin="bevel" stroke-opacity="1" stroke-width="1" transform="matrix(1,0,0,1,1386.06,878.949)">
    <text fill="#212529" fill-opacity="1" font-family="ISOCPEUR" font-size="53" font-style="normal" font-weight="400" stroke="none" x="4" xml:space="preserve" y="55.2344">55</text>
   </g>
   <g fill="none" font-family="Sans Serif" font-size="31.75" font-style="normal" font-weight="400" stroke="#212529" stroke-linecap="round" stroke-linejoin="bevel" stroke-opacity="1" stroke-width="2.5" transform="matrix(1,0,0,1,1501.46,1099.8)">
    <path d="M-225,-147.601 L50,-147.601 M50,-75 L50,-167.601 M-225,-75 L-225,-167.601" fill-rule="evenodd" vector-effect="none"/>
   </g>
   <g fill="#212529" fill-opacity="1" font-family="Sans Serif" font-size="31.75" font-style="normal" font-weight="400" stroke="#212529" stroke-linecap="round" stroke-linejoin="bevel" stroke-opacity="1" stroke-width="2.5" transform="matrix(1,0,0,1,1551.46,952.199)">
    <path d="M0,0 L-35,-5.83333 L-35,5.83333 L0,0" fill-rule="evenodd" vector-effect="none"/>
   </g>
   <g fill="#212529" fill-opacity="1" font-family="Sans Serif" font-size="31.75" font-style="normal" font-weight="400" stroke="#212529" stroke-linecap="round" stroke-linejoin="bevel" stroke-opacity="1" stroke-width="2.5" transform="matrix(1,0,0,1,1276.46,952.199)">
    <path d="M0,0 L35,5.83333 L35,-5.83333 L0,0" fill-rule="evenodd" vector-effect="none"/>
   </g>
   <g fill="none" font-family="Sans Serif" font-size="31.75" font-style="normal" font-weight="400" stroke="#212529" stroke-linecap="square" stroke-linejoin="bevel" stroke-opacity="1" stroke-width="1" transform="matrix(1,0,0,1,1661.06,878.949)">
    <text fill="#212529" fill-opacity="1" font-family="ISOCPEUR" font-size="53" font-style="normal" font-weight="400" stroke="none" x="4" xml:space="preserve" y="55.2344">55</text>
   </g>
   <g fill="none" font-family="Sans Serif" font-size="31.75" font-style="normal" font-weight="400" stroke="#212529" stroke-linecap="round" stroke-linejoin="bevel" stroke-opacity="1" stroke-width="2.5" transform="matrix(1,0,0,1,1501.46,1099.8)">
    <path d="M50,-147.601 L325,-147.601 M325,-75 L325,-167.601 M50,-75 L50,-167.601" fill-rule="evenodd" vector-effect="none"/>
   </g>
   <g fill="#212529" fill-opacity="1" font-family="Sans Serif" font-size="31.75" font-style="normal" font-weight="400" stroke="#212529" stroke-linecap="round" stroke-linejoin="bevel" stroke-opacity="1" stroke-width="2.5" transform="matrix(1,0,0,1,1826.46,952.199)">
    <path d="M0,0 L-35,-5.83333 L-35,5.83333 L0,0" fill-rule="evenodd" vector-effect="none"/>
   </g>
   <g fill="#212529" fill-opacity="1" font-family="Sans Serif" font-size="31.75" font-style="normal" font-weight="400" stroke="#212529" stroke-linecap="round" stroke-linejoin="bevel" stroke-opacity="1" stroke-width="2.5" transform="matrix(1,0,0,1,1551.46,952.199)">
    <path d="M0,0 L35,5.83333 L35,-5.83333 L0,0" fill-rule="evenodd" vector-effect="none"/>
   </g>
   <g fill="none" font-family="Sans Serif" font-size="31.75" font-style="normal" font-weight="400" stroke="#212529" stroke-linecap="square" stroke-linejoin="bevel" stroke-opacity="1" stroke-width="1" transform="matrix(1,0,0,1,1886.06,878.949)">
    <text fill="#212529" fill-opacity="1" font-family="ISOCPEUR" font-size="53" font-style="normal" font-weight="400" stroke="none" x="4" xml:space="preserve" y="55.2344">35</text>
   </g>
   <g fill="none" font-family="Sans Serif" font-size="31.75" font-style="normal" font-weight="400" stroke="#212529" stroke-linecap="round" stroke-linejoin="bevel" stroke-opacity="1" stroke-width="2.5" transform="matrix(1,0,0,1,1501.46,1099.8)">
    <path d="M325,-147.601 L500,-147.601 M500,-45 L500,-167.601 M325,-75 L325,-167.601" fill-rule="evenodd" vector-effect="none"/>
   </g>
   <g fill="#212529" fill-opacity="1" font-family="Sans Serif" font-size="31.75" font-style="normal" font-weight="400" stroke="#212529" stroke-linecap="round" stroke-linejoin="bevel" stroke-opacity="1" stroke-width="2.5" transform="matrix(1,0,0,1,2001.46,952.199)">
    <path d="M0,0 L-35,-5.83333 L-35,5.83333 L0,0" fill-rule="evenodd" vector-effect="none"/>
   </g>
   <g fill="#212529" fill-opacity="1" font-family="Sans Serif" font-size="31.75" font-style="normal" font-weight="400" stroke="#212529" stroke-linecap="round" stroke-linejoin="bevel" stroke-opacity="1" stroke-width="2.5" transform="matrix(1,0,0,1,1826.46,952.199)">
    <path d="M0,0 L35,5.83333 L35,-5.83333 L0,0" fill-rule="evenodd" vector-effect="none"/>
   </g>
   <g fill="none" font-family="Sans Serif" font-size="31.75" font-style="normal" font-weight="400" stroke="#212529" stroke-linecap="square" stroke-linejoin="bevel" stroke-opacity="1" stroke-width="1" transform="matrix(0,-1,1,0,794.456,1074.29)">
    <text fill="#212529" fill-opacity="1" font-family="ISOCPEUR" font-size="53" font-style="normal" font-weight="400" stroke="none" x="4" xml:space="preserve" y="55.2344">10</text>
   </g>
   <g fill="none" font-family="Sans Serif" font-size="31.75" font-style="normal" font-weight="400" stroke="#212529" stroke-linecap="round" stroke-linejoin="bevel" stroke-opacity="1" stroke-width="2.5" transform="matrix(1,0,0,1,1501.46,1099.8)">
    <path d="M-633.756,-145 L-633.756,45 M-500,-25 L-653.756,-25 M-225,-75 L-653.756,-75" fill-rule="evenodd" vector-effect="none"/>
   </g>
   <g fill="#212529" fill-opacity="1" font-family="Sans Serif" font-size="31.75" font-style="normal" font-weight="400" stroke="#212529" stroke-linecap="round" stroke-linejoin="bevel" stroke-opacity="1" stroke-width="2.5" transform="matrix(1,0,0,1,867.706,1074.8)">
    <path d="M0,0 L-5.83333,35 L5.83333,35 L0,0" fill-rule="evenodd" vector-effect="none"/>
   </g>
   <g fill="#212529" fill-opacity="1" font-family="Sans Serif" font-size="31.75" font-style="normal" font-weight="400" stroke="#212529" stroke-linecap="round" stroke-linejoin="bevel" stroke-opacity="1" stroke-width="2.5" transform="matrix(1,0,0,1,867.706,1024.8)">
    <path d="M0,0 L5.83333,-35 L-5.83333,-35 L0,0" fill-rule="evenodd" vector-effect="none"/>
   </g>
   <g fill="none" font-family="Sans Serif" font-size="31.75" font-style="normal" font-weight="400" stroke="#212529" stroke-linecap="square" stroke-linejoin="bevel" stroke-opacity="1" stroke-width="1" transform="matrix(0,-1,1,0,794.456,1152.71)">
    <text fill="#212529" fill-opacity="1" font-family="ISOCPEUR" font-size="53" font-style="normal" font-weight="400" stroke="none" x="4" xml:space="preserve" y="55.2344">20</text>
   </g>
   <g fill="none" font-family="Sans Serif" font-size="31.75" font-style="normal" font-weight="400" stroke="#212529" stroke-linecap="round" stroke-linejoin="bevel" stroke-opacity="1" stroke-width="2.5" transform="matrix(1,0,0,1,1501.46,1099.8)">
    <path d="M-633.756,-95 L-633.756,-25 M-633.756,-25 L-633.756,145 M-225,75 L-653.756,75 M-500,-25 L-653.756,-25" fill-rule="evenodd" vector-effect="none"/>
   </g>
   <g fill="#212529" fill-opacity="1" font-family="Sans Serif" font-size="31.75" font-style="normal" font-weight="400" stroke="#212529" stroke-linecap="round" stroke-linejoin="bevel" stroke-opacity="1" stroke-width="2.5" transform="matrix(1,0,0,1,867.706,1174.8)">
    <path d="M0,0 L-5.83333,35 L5.83333,35 L0,0" fill-rule="evenodd" vector-effect="none"/>
   </g>
   <g fill="#212529" fill-opacity="1" font-family="Sans Serif" font-size="31.75" font-style="normal" font-weight="400" stroke="#212529" stroke-linecap="round" stroke-linejoin="bevel" stroke-opacity="1" stroke-width="2.5" transform="matrix(1,0,0,1,867.706,1074.8)">
    <path d="M0,0 L5.83333,-35 L-5.83333,-35 L0,0" fill-rule="evenodd" vector-effect="none"/>
   </g>
   <g fill="none" font-family="Sans Serif" font-size="31.75" font-style="normal" font-weight="400" stroke="#212529" stroke-linecap="round" stroke-linejoin="bevel" stroke-opacity="1" stroke-width="2.5" transform="matrix(1,0,0,1,1501.46,1099.8)">
    <path d="M416.198,130.533 L366.198,130.533 L301.375,76.1182" fill-rule="evenodd" vector-effect="none"/>
   </g>
   <g fill="#212529" fill-opacity="1" font-family="Sans Serif" font-size="31.75" font-style="normal" font-weight="400" stroke="#212529" stroke-linecap="round" stroke-linejoin="bevel" stroke-opacity="1" stroke-width="2.5" transform="matrix(-0.765918,-0.642938,0.642938,-0.765918,1802.84,1175.92)">
    <path d="M0,0 L-35,-5.83333 L-35,5.83333 L0,0" fill-rule="evenodd" vector-effect="none"/>
   </g>
   <g fill="none" font-family="Sans Serif" font-size="31.75" font-style="normal" font-weight="400" stroke="#212529" stroke-linecap="round" stroke-linejoin="bevel" stroke-opacity="1" stroke-width="2.5" transform="matrix(1,0,0,1,1501.46,1099.8)">
    <path d="M232.939,127.609 L182.939,127.609 L122.992,14.7077" fill-rule="evenodd" vector-effect="none"/>
   </g>
   <g fill="#212529" fill-opacity="1" font-family="Sans Serif" font-size="31.75" font-style="normal" font-weight="400" stroke="#212529" stroke-linecap="round" stroke-linejoin="bevel" stroke-opacity="1" stroke-width="2.5" transform="matrix(-0.468963,-0.883218,0.883218,-0.468963,1624.45,1114.51)">
    <path d="M0,0 L-35,-5.83333 L-35,5.83333 L0,0" fill-rule="evenodd" vector-effect="none"/>
   </g>
   <g fill="none" font-family="Sans Serif" font-size="31.75" font-style="normal" font-weight="400" stroke="#000000" stroke-linecap="square" stroke-linejoin="bevel" stroke-opacity="1" stroke-width="1" transform="matrix(1,0,0,1,1501.46,1099.8)">
    <rect height="0" width="0" x="0" y="0"/>
   </g>
   <g fill="none" font-family="Sans Serif" font-size="31.75" font-style="normal" font-weight="400" stroke="#212529" stroke-linecap="round" stroke-linejoin="bevel" stroke-opacity="1" stroke-width="2.5" transform="matrix(1,0,0,1,1501.46,1099.8)">
    <path d="M-22.9382,123.222 L-72.9382,123.222 L-170.901,49.7995" fill-rule="evenodd" vector-effect="none"/>
   </g>
   <g fill="#212529" fill-opacity="1" font-family="Sans Serif" font-size="31.75" font-style="normal" font-weight="400" stroke="#212529" stroke-linecap="round" stroke-linejoin="bevel" stroke-opacity="1" stroke-width="2.5" transform="matrix(-0.800194,-0.599741,0.599741,-0.800194,1330.56,1149.6)">
    <path d="M0,0 L-35,-5.83333 L-35,5.83333 L0,0" fill-rule="evenodd" vector-effect="none"/>
   </g>
   <g fill="#f1f3f5" fill-opacity="1" font-family="Sans Serif" font-size="31.75" font-style="normal" font-weight="400" stroke="#212529" stroke-linecap="round" stroke-linejoin="bevel" stroke-opacity="1" stroke-width="2.5" transform="matrix(1,0,0,1,1501.46,1099.8)">
    <path d="" fill-rule="evenodd" vector-effect="none"/>
   </g>
   <g fill="none" font-family="Sans Serif" font-size="31.75" font-style="normal" font-weight="400" stroke="#212529" stroke-linecap="square" stroke-linejoin="bevel" stroke-opacity="1" stroke-width="1" transform="matrix(1,0,0,1,1498.52,1186.52)">
    <text fill="#212529" fill-opacity="1" font-family="ISOCPEUR" font-size="53" font-style="normal" font-weight="400" stroke="none" x="4" xml:space="preserve" y="55.2344">3</text>
   </g>
   <g fill="#f1f3f5" fill-opacity="1" font-family="Sans Serif" font-size="31.75" font-style="normal" font-weight="400" stroke="#212529" stroke-linecap="round" stroke-linejoin="bevel" stroke-opacity="1" stroke-width="2.5" transform="matrix(1,0,0,1,1501.46,1099.8)">
    <path d="" fill-rule="evenodd" vector-effect="none"/>
   </g>
   <g fill="none" font-family="Sans Serif" font-size="31.75" font-style="normal" font-weight="400" stroke="#212529" stroke-linecap="square" stroke-linejoin="bevel" stroke-opacity="1" stroke-width="1" transform="matrix(1,0,0,1,1754.4,1190.91)">
    <text fill="#212529" fill-opacity="1" font-family="ISOCPEUR" font-size="53" font-style="normal" font-weight="400" stroke="none" x="4" xml:space="preserve" y="55.2344">2</text>
   </g>
   <g fill="#f1f3f5" fill-opacity="1" font-family="Sans Serif" font-size="31.75" font-style="normal" font-weight="400" stroke="#212529" stroke-linecap="round" stroke-linejoin="bevel" stroke-opacity="1" stroke-width="2.5" transform="matrix(1,0,0,1,1501.46,1099.8)">
    <path d="" fill-rule="evenodd" vector-effect="none"/>
   </g>
   <g fill="none" font-family="Sans Serif" font-size="31.75" font-style="normal" font-weight="400" stroke="#212529" stroke-linecap="square" stroke-linejoin="bevel" stroke-opacity="1" stroke-width="1" transform="matrix(1,0,0,1,1937.66,1193.83)">
    <text fill="#212529" fill-opacity="1" font-family="ISOCPEUR" font-size="53" font-style="normal" font-weight="400" stroke="none" x="4" xml:space="preserve" y="55.2344">1</text>
   </g>
   <g fill="#f1f3f5" fill-opacity="0" font-family="Sans Serif" font-size="31.75" font-style="normal" font-weight="400" stroke="none" transform="matrix(1,0,0,1,1277.45,1124.51)">
    <path d="M-110,-25 L-110,0 L-110,25 L165,25 L165,0 L165,-25 L-110,-25" fill-rule="evenodd" vector-effect="non-scaling-stroke"/>
   </g>
   <g fill="#f1f3f5" fill-opacity="0" font-family="Sans Serif" font-size="31.75" font-style="normal" font-weight="400" stroke="none" transform="matrix(1,0,0,1,1277.45,1124.51)">
    <path d="M-110,0 L165,0 L165,25 L-110,25 L-110,0" fill-rule="evenodd" vector-effect="non-scaling-stroke"/>
   </g>
   <g fill="#f1f3f5" fill-opacity="0" font-family="Sans Serif" font-size="31.75" font-style="normal" font-weight="400" stroke="none" transform="matrix(1,0,0,1,1277.45,1124.51)">
    <path d="M-110,-25 L-110,0 L165,0 L165,-25 L-110,-25" fill-rule="evenodd" vector-effect="non-scaling-stroke"/>
   </g>
   <g fill="none" font-family="Sans Serif" font-size="31.75" font-style="normal" font-weight="400" stroke="#000000" stroke-linecap="round" stroke-linejoin="bevel" stroke-opacity="1" stroke-width="1.8" transform="matrix(1,0,0,1,1277.45,1124.51)">
    <path d="M-275,0 L275,0" fill-rule="evenodd" vector-effect="none"/>
   </g>
   <g fill="none" font-family="Sans Serif" font-size="31.75" font-style="normal" font-weight="400" stroke="#000000" stroke-linecap="round" stroke-linejoin="bevel" stroke-opacity="1" stroke-width="1.8" transform="matrix(1,0,0,1,1277.45,1124.51)">
    <path d="M-275,25 L275,25" fill-rule="evenodd" vector-effect="none"/>
   </g>
   <g fill="none" font-family="Sans Serif" font-size="31.75" font-style="normal" font-weight="400" stroke="#000000" stroke-linecap="round" stroke-linejoin="bevel" stroke-opacity="1" stroke-width="1.8" transform="matrix(1,0,0,1,1277.45,1124.51)">
    <path d="M-275,-25 L275,-25" fill-rule="evenodd" vector-effect="none"/>
   </g>
   <g fill="none" font-family="Sans Serif" font-size="31.75" font-style="normal" font-weight="400" stroke="#000000" stroke-linecap="round" stroke-linejoin="bevel" stroke-opacity="1" stroke-width="1.8" transform="matrix(1,0,0,1,1277.45,1124.51)">
    <path d="M-110,-50 L-110,50" fill-rule="evenodd" vector-effect="none"/>
   </g>
   <g fill="none" font-family="Sans Serif" font-size="31.75" font-style="normal" font-weight="400" stroke="#000000" stroke-linecap="round" stroke-linejoin="bevel" stroke-opacity="1" stroke-width="1.8" transform="matrix(1,0,0,1,1277.45,1124.51)">
    <path d="M165,-50 L165,50" fill-rule="evenodd" vector-effect="none"/>
   </g>
   <g fill="none" font-family="Sans Serif" font-size="31.75" font-style="normal" font-weight="400" stroke="#212529" stroke-linecap="square" stroke-linejoin="bevel" stroke-opacity="1" stroke-width="1" transform="matrix(0,-1,1,0,876.859,1216.67)">
    <text fill="#212529" fill-opacity="1" font-family="ISOCPEUR" font-size="53" font-style="normal" font-weight="400" stroke="none" x="4" xml:space="preserve" y="55.2344">5</text>
   </g>
   <g fill="none" font-family="Sans Serif" font-size="31.75" font-style="normal" font-weight="400" stroke="#212529" stroke-linecap="round" stroke-linejoin="bevel" stroke-opacity="1" stroke-width="2.5" transform="matrix(1,0,0,1,1277.45,1124.51)">
    <path d="M-327.342,101.185 L-327.342,-70 M-275,0 L-347.342,0 M-275,25 L-347.342,25" fill-rule="evenodd" vector-effect="none"/>
   </g>
   <g fill="#212529" fill-opacity="1" font-family="Sans Serif" font-size="31.75" font-style="normal" font-weight="400" stroke="#212529" stroke-linecap="round" stroke-linejoin="bevel" stroke-opacity="1" stroke-width="2.5" transform="matrix(1,0,0,1,950.109,1124.51)">
    <path d="M0,0 L5.83333,-35 L-5.83333,-35 L0,0" fill-rule="evenodd" vector-effect="none"/>
   </g>
   <g fill="#212529" fill-opacity="1" font-family="Sans Serif" font-size="31.75" font-style="normal" font-weight="400" stroke="#212529" stroke-linecap="round" stroke-linejoin="bevel" stroke-opacity="1" stroke-width="2.5" transform="matrix(1,0,0,1,950.109,1149.51)">
    <path d="M0,0 L-5.83333,35 L5.83333,35 L0,0" fill-rule="evenodd" vector-effect="none"/>
   </g>
   <g fill="none" font-family="Sans Serif" font-size="31.75" font-style="normal" font-weight="400" stroke="#212529" stroke-linecap="square" stroke-linejoin="bevel" stroke-opacity="1" stroke-width="1" transform="matrix(1,0,0,1,1194.55,1175.59)">
    <text fill="#212529" fill-opacity="1" font-family="ISOCPEUR" font-size="53" font-style="normal" font-weight="400" stroke="none" x="4" xml:space="preserve" y="55.2344">22</text>
   </g>
   <g fill="none" font-family="Sans Serif" font-size="31.75" font-style="normal" font-weight="400" stroke="#212529" stroke-linecap="round" stroke-linejoin="bevel" stroke-opacity="1" stroke-width="2.5" transform="matrix(1,0,0,1,1277.45,1124.51)">
    <path d="M-110,124.331 L0,124.331 M0,50 L0,144.331 M-110,50 L-110,144.331" fill-rule="evenodd" vector-effect="none"/>
   </g>
   <g fill="#212529" fill-opacity="1" font-family="Sans Serif" font-size="31.75" font-style="normal" font-weight="400" stroke="#212529" stroke-linecap="round" stroke-linejoin="bevel" stroke-opacity="1" stroke-width="2.5" transform="matrix(1,0,0,1,1277.45,1248.84)">
    <path d="M0,0 L-35,-5.83333 L-35,5.83333 L0,0" fill-rule="evenodd" vector-effect="none"/>
   </g>
   <g fill="#212529" fill-opacity="1" font-family="Sans Serif" font-size="31.75" font-style="normal" font-weight="400" stroke="#212529" stroke-linecap="round" stroke-linejoin="bevel" stroke-opacity="1" stroke-width="2.5" transform="matrix(1,0,0,1,1167.45,1248.84)">
    <path d="M0,0 L35,5.83333 L35,-5.83333 L0,0" fill-rule="evenodd" vector-effect="none"/>
   </g>
   <g fill="#f1f3f5" fill-opacity="0" font-family="Sans Serif" font-size="31.75" font-style="normal" font-weight="400" stroke="none" transform="matrix(1,0,0,1,1200,1050)">
    <path d="M-34.2793,0 L-34.2793,-6.25 L-9.27934,-12.5 L-9.27934,0 L-34.2793,0" fill-rule="evenodd" vector-effect="non-scaling-stroke"/>
   </g>
   <g fill="#f1f3f5" fill-opacity="0" font-family="Sans Serif" font-size="31.75" font-style="normal" font-weight="400" stroke="none" transform="matrix(1,0,0,1,1200,1050)">
    <path d="M-34.2793,6.25 L-34.2793,0 L-9.27934,0 L-9.27934,12.5 L-34.2793,6.25" fill-rule="evenodd" vector-effect="non-scaling-stroke"/>
   </g>
   <g fill="#f1f3f5" fill-opacity="0" font-family="Sans Serif" font-size="31.75" font-style="normal" font-weight="400" stroke="none" transform="matrix(1,0,0,1,1200,1050)">
    <path d="M15.6436,-12.5 L15.6436,-6.25 C12.1918,-6.25 9.39356,-3.45178 9.39356,-7.15421e-14 L9.39356,-1.8579e-13 L3.14356,1.82977e-13 L3.14356,-7.25851e-14 C3.14356,-6.90356 8.74001,-12.5 15.6436,-12.5 " fill-rule="evenodd" vector-effect="non-scaling-stroke"/>
   </g>
   <g fill="#f1f3f5" fill-opacity="0" font-family="Sans Serif" font-size="31.75" font-style="normal" font-weight="400" stroke="none" transform="matrix(1,0,0,1,1200,1050)">
    <path d="M21.8936,-7.10543e-14 C21.8936,-3.45178 19.0953,-6.25 15.6436,-6.25 L15.6436,-12.5 C22.5471,-12.5 28.1436,-6.90356 28.1436,-7.21645e-14 L28.1436,-7.10543e-14 L21.8936,-7.10543e-14" fill-rule="evenodd" vector-effect="non-scaling-stroke"/>
   </g>
   <g fill="#f1f3f5" fill-opacity="0" font-family="Sans Serif" font-size="31.75" font-style="normal" font-weight="400" stroke="none" transform="matrix(1,0,0,1,1200,1050)">
    <path d="M3.14356,1.82977e-13 L9.39356,-1.8579e-13 L9.39356,-7.18197e-14 C9.39356,3.45178 12.1918,6.25 15.6436,6.25 L15.6436,12.5 C8.74001,12.5 3.14356,6.90356 3.14356,-6.8552e-14 " fill-rule="evenodd" vector-effect="non-scaling-stroke"/>
   </g>
   <g fill="#f1f3f5" fill-opacity="0" font-family="Sans Serif" font-size="31.75" font-style="normal" font-weight="400" stroke="none" transform="matrix(1,0,0,1,1200,1050)">
    <path d="M15.6436,6.25 C19.0953,6.25 21.8936,3.45178 21.8936,-6.93889e-14 L21.8936,-7.10543e-14 L28.1436,-7.10543e-14 L28.1436,-6.79927e-14 C28.1436,6.90356 22.5471,12.5 15.6436,12.5 L15.6436,6.25" fill-rule="evenodd" vector-effect="non-scaling-stroke"/>
   </g>
   <g fill="#f1f3f5" fill-opacity="0" font-family="Sans Serif" font-size="31.75" font-style="normal" font-weight="400" stroke="none" transform="matrix(1,0,0,1,1200,1050)">
    <path d="M15.6436,-6.25 C12.1918,-6.25 9.39356,-3.45178 9.39356,-7.15421e-14 L9.39356,-1.8579e-13 L15.6436,0 L15.6436,-6.25" fill-rule="evenodd" vector-effect="non-scaling-stroke"/>
   </g>
   <g fill="#f1f3f5" fill-opacity="0" font-family="Sans Serif" font-size="31.75" font-style="normal" font-weight="400" stroke="none" transform="matrix(1,0,0,1,1200,1050)">
    <path d="M9.39356,-7.18197e-14 C9.39356,3.45178 12.1918,6.25 15.6436,6.25 L15.6436,0 L9.39356,-1.8579e-13" fill-rule="evenodd" vector-effect="non-scaling-stroke"/>
   </g>
   <g fill="#f1f3f5" fill-opacity="0" font-family="Sans Serif" font-size="31.75" font-style="normal" font-weight="400" stroke="none" transform="matrix(1,0,0,1,1200,1050)">
    <path d="M21.8936,-7.10543e-14 C21.8936,-3.45178 19.0953,-6.25 15.6436,-6.25 L15.6436,0 L21.8936,-7.10543e-14" fill-rule="evenodd" vector-effect="non-scaling-stroke"/>
   </g>
   <g fill="#f1f3f5" fill-opacity="0" font-family="Sans Serif" font-size="31.75" font-style="normal" font-weight="400" stroke="none" transform="matrix(1,0,0,1,1200,1050)">
    <path d="M15.6436,0 L15.6436,6.25 C19.0953,6.25 21.8936,3.45178 21.8936,-6.93889e-14 L21.8936,-7.10543e-14 L15.6436,0" fill-rule="evenodd" vector-effect="non-scaling-stroke"/>
   </g>
   <g fill="#f1f3f5" fill-opacity="0" font-family="Sans Serif" font-size="31.75" font-style="normal" font-weight="400" stroke="none" transform="matrix(1,0,0,1,1200,1050)">
    <path d="M-34.2793,6.25 L-34.2793,0 L-34.2793,-6.25 L-9.27934,-12.5 L-9.27934,0 L3.14356,1.82977e-13 L3.14356,-7.25851e-14 C3.14356,6.90356 8.74001,12.5 15.6436,12.5 C22.5471,12.5 28.1436,6.90356 28.1436,-6.80012e-14 L28.1436,-7.10543e-14 C28.1436,-6.90356 22.5471,-12.5 15.6436,-12.5 C8.74001,-12.5 3.14356,-6.90356 3.14356,-7.36953e-14 L3.14356,1.82977e-13 L-9.27934,0 L-9.27934,12.5 L-34.2793,6.25" fill-rule="evenodd" vector-effect="non-scaling-stroke"/>
   </g>
   <g fill="none" font-family="Sans Serif" font-size="31.75" font-style="normal" font-weight="400" stroke="#000000" stroke-linecap="round" stroke-linejoin="bevel" stroke-opacity="1" stroke-width="3.5" transform="matrix(1,0,0,1,1200,1050)">
    <path d="M-34.2793,6.25 L-34.2793,-6.25" fill-rule="evenodd" vector-effect="none"/>
   </g>
   <g fill="none" font-family="Sans Serif" font-size="31.75" font-style="normal" font-weight="400" stroke="#000000" stroke-linecap="round" stroke-linejoin="bevel" stroke-opacity="1" stroke-width="3.5" transform="matrix(1,0,0,1,1200,1050)">
    <path d="M-34.2793,-6.25 L-9.27934,-12.5" fill-rule="evenodd" vector-effect="none"/>
   </g>
   <g fill="none" font-family="Sans Serif" font-size="31.75" font-style="normal" font-weight="400" stroke="#000000" stroke-linecap="round" stroke-linejoin="bevel" stroke-opacity="1" stroke-width="3.5" transform="matrix(1,0,0,1,1200,1050)">
    <path d="M-9.27934,-12.5 L-9.27934,12.5" fill-rule="evenodd" vector-effect="none"/>
   </g>
   <g fill="none" font-family="Sans Serif" font-size="31.75" font-style="normal" font-weight="400" stroke="#000000" stroke-linecap="round" stroke-linejoin="bevel" stroke-opacity="1" stroke-width="3.5" transform="matrix(1,0,0,1,1200,1050)">
    <path d="M-9.27934,12.5 L-34.2793,6.25" fill-rule="evenodd" vector-effect="none"/>
   </g>
   <g fill="none" font-family="Sans Serif" font-size="31.75" font-style="normal" font-weight="400" stroke="#000000" stroke-linecap="round" stroke-linejoin="bevel" stroke-opacity="1" stroke-width="3.5" transform="matrix(1,0,0,1,1200,1050)">
    <path d="M21.8936,-7.10543e-14 C21.8936,3.45178 19.0953,6.25 15.6436,6.25 C12.1918,6.25 9.39356,3.45178 9.39356,-7.10543e-14 C9.39356,-3.45178 12.1918,-6.25 15.6436,-6.25 C19.0953,-6.25 21.8936,-3.45178 21.8936,-7.10543e-14 " fill-rule="evenodd" vector-effect="none"/>
   </g>
   <g fill="none" font-family="Sans Serif" font-size="31.75" font-style="normal" font-weight="400" stroke="#000000" stroke-linecap="round" stroke-linejoin="bevel" stroke-opacity="1" stroke-width="3.5" transform="matrix(1,0,0,1,1200,1050)">
    <path d="M28.1436,-7.10543e-14 C28.1436,6.90356 22.5471,12.5 15.6436,12.5 C8.74001,12.5 3.14356,6.90356 3.14356,-7.10543e-14 C3.14356,-6.90356 8.74001,-12.5 15.6436,-12.5 C22.5471,-12.5 28.1436,-6.90356 28.1436,-7.10543e-14 " fill-rule="evenodd" vector-effect="none"/>
   </g>
   <g fill="none" font-family="Sans Serif" font-size="31.75" font-style="normal" font-weight="400" stroke="#000000" stroke-dasharray="18,4.5,1.5,4.5" stroke-dashoffset="0" stroke-linecap="round" stroke-linejoin="bevel" stroke-opacity="1" stroke-width="1.5" transform="matrix(1,0,0,1,1200,1050)">
    <path d="M-41.225,0 L41.225,0" fill-rule="evenodd" vector-effect="none"/>
   </g>
   <g fill="none" font-family="Sans Serif" font-size="31.75" font-style="normal" font-weight="400" stroke="#000000" stroke-dasharray="18,4.5,1.5,4.5" stroke-dashoffset="0" stroke-linecap="round" stroke-linejoin="bevel" stroke-opacity="1" stroke-width="1.5" transform="matrix(1,0,0,1,1200,1050)">
    <path d="M15.6436,-16.1418 L15.6436,16.1418" fill-rule="evenodd" vector-effect="none"/>
   </g>
  </g>
 </g>
</svg>
